<svg xmlns="http://www.w3.org/2000/svg" width="225.504" height="527.207" viewBox="0 0 225.504 527.207">
  <g id="Group_167" data-name="Group 167" transform="translate(-80.709 -169.723)" opacity="0.04">
    <path id="Path_1" data-name="Path 1" d="M151.618,321.267c-4.5,5.366-8.744,10.624-13.2,15.7-10.576,12.035-22.6,22.3-37.3,29-5.265,2.4-10.829,4.163-16.3,6.1a16.055,16.055,0,0,1-3.715.41l-.4-.549a12.344,12.344,0,0,1,1.9-2.487q4.97-3.905,10.1-7.6A225.383,225.383,0,0,0,124.7,334.421c8.714-9.154,15.929-19.477,22.875-29.98,4.466-6.751,8.639-13.7,12.935-20.558.307-.491.548-1.023.971-1.824-4.59.682-8.885,1.264-13.159,1.966-10.034,1.648-20.046,3.422-30.088,5.014-6.976,1.107-13.235-1.215-19.107-4.669a38.8,38.8,0,0,1-6.385-4.8c-1.526-1.392-1.064-2.57,1.026-2.725,2.662-.2,5.348-.081,8.024-.07,16.111.06,32.067-1.754,47.995-3.923,4.906-.669,9.82-1.3,14.742-1.833a3.46,3.46,0,0,0,3.271-2.329c2.415-5.872,4.977-11.683,7.469-17.524.254-.6.41-1.233.827-2.508-3.9.7-7.4,1.12-10.772,2.006-2.451.644-4.868.915-7.053-.175-3.923-1.958-7.707-4.212-11.45-6.5a2.938,2.938,0,0,1-1.275-2.419c.2-.664,1.488-1.24,2.382-1.4a47.646,47.646,0,0,1,5.2-.414q12.515-.868,25.03-1.727a3.294,3.294,0,0,0,3.028-2.1,95.26,95.26,0,0,0,7-19.818,5.292,5.292,0,0,0,.008-1.005c-3.9.367-7.748.731-11.6,1.091-7.592.711-15.173,1.77-22.78,2.025-6.95.234-12.787-3.034-17.7-7.81-1.737-1.689-1.191-2.921,1.259-3.329a14.6,14.6,0,0,1,3-.237c16.324.69,32.482-1.376,48.666-2.973.583-.057,1.529-.759,1.582-1.239.811-7.441,1.652-14.885,2.13-22.352.14-2.172-.683-4.462-1.335-6.617-.973-3.21-.4-4.085,2.87-3.912,6.632.351,12.414,3.111,17.9,6.522,3.235,2.012,3.32,3.559,1.383,6.819-3.4,5.718-5.341,12.031-7.6,18.636,5.023-.7,9.733-1.232,14.4-2.036,8.7-1.5,17.343-3.306,26.053-4.718,8.457-1.37,15.535,1.643,21.409,7.662,2.352,2.412,1.845,4.38-1.416,5.249a27.023,27.023,0,0,1-6.724.964c-16.365.092-32.621,1.668-48.868,3.4-2.2.235-4.412.322-6.592.652a2.433,2.433,0,0,0-1.686,1.256c-2.267,6.855-4.426,13.744-6.6,20.629a3.644,3.644,0,0,0-.007.827c3.92-.562,7.81-1.055,11.679-1.688,8.119-1.329,16.222-2.753,24.338-4.1,7.463-1.236,13.142,2,17.866,7.373,1.434,1.631.962,3.2-1.32,3.706-3.446.765-6.982,1.165-10.494,1.586-15.015,1.8-30.038,3.533-45.051,5.353a2.67,2.67,0,0,0-1.817,1.2c-3.225,6.607-6.356,13.262-9.505,19.908-.05.105-.006.256-.006.6,3.571-.492,7.126-.99,10.685-1.471,23.207-3.131,46.4-6.36,69.627-9.329,7.422-.948,14.926-1.335,22.4-1.748,8.308-.458,14.88,3.148,20.228,9.283,2.661,3.052,2.148,5.41-1.827,5.862a93.528,93.528,0,0,1-17.385.622,254.545,254.545,0,0,0-42.733.541c-15.523,1.452-31.013,3.269-46.507,5.023-5.915.67-11.8,1.577-17.692,2.467a2.949,2.949,0,0,0-1.839,1.23q-9.8,16-19.491,32.06a6.454,6.454,0,0,0-.312.846c21.416-.157,42.3-3.894,63.547-6.094-.545-6.863-1.535-13.41-4.514-19.519a18.948,18.948,0,0,1-1.354-3.119c-.58-2.068.241-3.065,2.386-3.082a4.458,4.458,0,0,1,1.59.163c5.347,2.061,10.756,3.99,15.987,6.319,2.744,1.22,2.674,2.024,2.114,4.991-.738,3.914-1.245,7.872-1.9,12.128,5.636-1.025,10.814-1.99,16-2.905,4.809-.85,9.6-1.873,14.446-2.42,9.563-1.08,17.252,2.741,23.421,9.822,1.974,2.266,1.365,4.321-1.563,4.9a48.052,48.052,0,0,1-10.14.89c-8.9-.172-17.788-.779-26.686-.906-5-.072-10,.462-15.256.737,0,.952-.021,1.661,0,2.368.645,18.4.968,36.827,2.048,55.206.874,14.9-5.4,26.229-15.788,35.954a9.286,9.286,0,0,1-2.337,1.536c-2.141,1.023-4.011.6-4.828-1.62-3.863-10.5-12.613-16.123-21.328-21.825-2.015-1.319-4-2.683-6-4.018-.665-.443-1.349-.857-2.025-1.284l.5-.81a25.973,25.973,0,0,1,2.782.014c7.644.822,15.29,1.635,22.923,2.546a5.83,5.83,0,0,0,6.6-3.8,45.423,45.423,0,0,0,3.269-11.492c1.759-16.82,1.4-33.7.753-50.575a7.3,7.3,0,0,0-.191-.952c-4.186.594-8.346,1.146-12.491,1.78-12.3,1.883-24.583,3.906-36.9,5.659-6.4.911-12.512-.52-18.306-3.327C152.867,321.876,152.21,321.554,151.618,321.267Z" transform="translate(0 0)" fill="#fff"/>
    <path id="Path_2" data-name="Path 2" d="M475.822,279.7c-.229-13.39-.272-26.787-.752-40.168-.329-9.155-1.225-18.292-1.97-27.428a17.569,17.569,0,0,0-1.2-4.639c-2.007-5.353-5.99-8.326-11.693-7.982-6.937.42-13.878,1.134-20.75,2.165-17.069,2.563-33.955,6.054-50.747,10.082-8.858,2.124-17.147.051-24.391-5.59-1.256-.977-3.3-2.142-2.394-3.894.514-.99,2.736-1.514,4.2-1.53a262.037,262.037,0,0,0,37.571-3.329c16.321-2.55,32.609-5.319,48.387-10.408a38.243,38.243,0,0,0,5.963-2.346c6.772-3.531,13.506-3.034,20.33-.206A53.694,53.694,0,0,1,496.09,196.3c3.928,3.954,5.288,8.751,2.625,13.568-6.707,12.128-7.224,25.358-7.443,38.6-.2,11.776.408,23.563.486,35.347.144,22.027.362,44.058.151,66.082a99.476,99.476,0,0,1-5.539,33.112A45.273,45.273,0,0,1,472.588,402.2c-.153.131-.311.255-.47.376-5.285,4.062-9.257,3.1-11.436-3.17-3.3-9.484-9.028-17.212-16.154-24.1a58.173,58.173,0,0,1-5.454-6.659c-.342-.448-.245-1.233-.352-1.863a4.865,4.865,0,0,1,1.887-.193c2.088.689,4.106,1.584,6.184,2.3,5.353,1.856,10.674,3.829,16.106,5.421,3.032.89,4.643.146,5.669-2.918a73.864,73.864,0,0,0,3.628-14.317A541.274,541.274,0,0,0,475.822,279.7Z" transform="translate(-238.706 291.912)" fill="#fff"/>
    <path id="Path_3" data-name="Path 3" d="M337.7,272.428c1.223.219,3.052.637,4.9.863,9.361,1.142,18.622.029,27.727-1.92,11.3-2.419,22.5-5.311,33.7-8.162a53.991,53.991,0,0,0,7.633-3.029,16.538,16.538,0,0,1,12.531-.461,56.887,56.887,0,0,1,17.325,9.521c2.755,2.309,3.252,4.465,1.459,7.543a9.854,9.854,0,0,1-1.522,2.11c-5.746,5.62-8.624,12.8-11.067,20.217-.815,2.474-1.377,5.032-2.2,7.5a1.946,1.946,0,0,0,.884,2.51,28.924,28.924,0,0,1,3.6,3.187c2.952,3.148,2.331,5.476-1.849,6.358-3,.632-6.1.753-9.147,1.16q-21.981,2.939-43.957,5.921c-3.777.516-7.527,1.242-11.309,1.713a1.936,1.936,0,0,0-1.853,1.662c-.754,2.418-1.515,4.844-2.5,7.171-.344.81-1.35,1.839-2.068,1.849s-1.75-1-2.093-1.806c-1.152-2.7-2.157-5.47-3.041-8.27-3.5-11.09-6.879-22.219-10.414-33.3a46.452,46.452,0,0,0-8.141-15.334,13.579,13.579,0,0,1-1.886-3.3C333.326,273.538,334.2,272.374,337.7,272.428Zm26.119,46.924a8.255,8.255,0,0,0,.945,0c16.661-2.876,33.312-5.818,49.994-8.568,2.344-.386,2.92-1.389,3.236-3.5,1.3-8.747.786-17.495.254-26.241a30.6,30.6,0,0,0-1.12-5.479,3.313,3.313,0,0,0-3.344-2.679,50.881,50.881,0,0,0-8.387.242c-11.89,1.83-23.756,3.819-35.621,5.812-4.323.726-8.619,1.621-13.206,2.494C359.018,294.229,361.42,306.8,363.819,319.352Z" transform="translate(-243.391 304.853)" fill="#fff"/>
    <path id="Path_4" data-name="Path 4" d="M371.818,245.788a43.06,43.06,0,0,1-15.775-3.387c-1.794-.787-3.893-1.748-3.747-3.949.141-2.118,2.416-2.573,4.137-2.877,6.386-1.126,12.774-2.34,19.214-3.029,12.54-1.34,24.785-4.17,37.081-6.775,4.288-.908,8.581-1.412,12.917-.234a13.668,13.668,0,0,1,7.046,4.733,2.506,2.506,0,0,1-.458,4.009,17.363,17.363,0,0,1-5.45,2.873c-7.053,1.776-14.125,3.589-21.293,4.765-9.7,1.591-19.487,2.626-29.243,3.846A38.92,38.92,0,0,1,371.818,245.788Z" transform="translate(-240.296 299.131)" fill="#fff"/>
    <path id="Path_5" data-name="Path 5" d="M175.844,335.03a19.813,19.813,0,0,1-3.573,10.39c-1.889,2.688-4.262,3.033-6.581.68a23.558,23.558,0,0,1-4.6-6.232c-3.1-6.573-5.908-13.288-8.7-20-.408-.98-.556-2.682,0-3.278.576-.617,2.269-.646,3.283-.326a46.7,46.7,0,0,1,15.13,8.011A13.115,13.115,0,0,1,175.844,335.03Z" transform="translate(12.055 24.737)" fill="#fff"/>
  </g>
</svg>
