<svg xmlns="http://www.w3.org/2000/svg" width="452.906" height="852.956" viewBox="0 0 452.906 852.956">
  <g id="Group_18" data-name="Group 18" transform="translate(-121.435 -164.463)" opacity="0.05">
    <path id="Path_359" data-name="Path 359" d="M750.978,422.1c-6.451,10.852-11.75,22.7-19.911,32.072-3.34,3.836-15.125,5.533-19.2,2.689-21.394-14.921-41.549-31.608-65.034-49.949,15.347,1.291,27.43,2.256,39.5,3.334,17.155,1.533,21.828-2.86,17.973-19.637-6.111-26.593-20.935-48.313-43.068-63.892-11.23-7.905-11.6-14.475-5.436-25.3,7-12.3,12.718-25.362,18.274-38.4,2.745-6.445,3.869-13.575,5.8-20.658-23.728-2.82-36.077,5.937-38.971,26.595a191.91,191.91,0,0,0-1.334,23.166c-1,57.238-1.113,114.506-3.241,171.7-.775,20.833-6.029,41.533-9.785,62.2a42,42,0,0,1-6.313,15.4c-2.362,3.537-6.807,5.69-10.327,8.458-2.834-3.871-7.348-7.42-8.171-11.678a182.574,182.574,0,0,1-3.263-32.015q-1.529-111.049-2.372-222.106c-.132-19.471.243-38.771-12.4-55.639l1.337-3.583c10.2.631,21.276-1.074,30.412,2.359,22.526,8.466,41.157-.06,57.863-12.163,12.3-8.911,23.462-10.071,35.917-4.254a227.873,227.873,0,0,1,32.417,18.229c6.819,4.675,7,10.03-1.06,16.174a306.7,306.7,0,0,0-64.961,67.685c3.546,2.172,6.187,4.161,9.12,5.528,30.566,14.248,56.121,33.337,66.243,67.518Z" transform="translate(-195.088 467.541)" fill="#101010"/>
    <path id="Path_360" data-name="Path 360" d="M567.77,133.446c12.267,3.532,24.753,6.45,36.741,10.752,14.569,5.229,19.68,13.584,17.674,25.971-1.7,10.5-13.76,21.654-25.411,22.2-4.264.2-10.673-1.078-12.664-4.006-10.782-15.869-20.571-32.415-30.4-48.905-.787-1.319.686-3.977,1.11-6.012Z" transform="translate(-216.549 415.137)" fill="#101010"/>
    <path id="Path_361" data-name="Path 361" d="M438.294,462.224l-210.44,13.167c-1.035,3.571-1.724,6.419-2.682,9.175-4.943,14.227-18.455,18.667-29.236,8.309-5.846-5.619-11.622-13.859-12.606-21.532-5.247-40.9-9.385-81.952-13.107-123.025-4.035-44.527-8.066-88.94-25.247-130.943-3.51-8.585.322-14.106,9.583-12.772,13.517,1.948,26.8,5.5,40.247,7.988,6.806,1.257,13.914,3.005,20.636,2.266,51.825-5.694,103.638-11.554,155.35-18.176,28.56-3.657,57.517-6.671,85.176-14.111,21.308-5.733,40.133-4.517,58.389,5.721,12.647,7.091,24.221,16.223,35.718,25.153,5.836,4.531,6.532,10.262.674,16.529-21.537,23.041-27.045,51.449-29.135,81.906-2.911,42.4-6.773,84.875-13.31,126.839-3.447,22.132-12.724,43.521-20.86,64.675-2.735,7.114-9.152,13.738-15.52,18.335-10.815,7.806-18.539,4.356-21.686-8.389C446.237,497.132,442.621,480.83,438.294,462.224ZM212.151,248c4.31,66.114,8.468,129.88,12.737,195.368l229.1-19.115c.737-2.419,2.331-6.816,3.421-11.335,13.184-54.664,16.818-110.38,18.024-166.327.458-21.3-2.451-24.743-23.364-23.733-40.906,1.974-81.894,3.725-122.594,7.982C290.61,234.9,252.065,242.03,212.151,248Z" transform="translate(19.527 -14.693)" fill="#101010"/>
    <path id="Path_362" data-name="Path 362" d="M603.339,392.311v68.325L649,442.865l-17.867-36c4.823,0,8.588-1.127,11.044.183,15.779,8.425,32.13,16.2,46.538,26.6a22.939,22.939,0,0,1,7.043,29.174c-2.86,5.773-9.065,12.643-14.651,13.548-5.538.9-12.481-4.623-18.238-8.232-2.646-1.659-3.932-5.473-7.385-10.618-23.083,17.706-46.343,34.417-68.238,52.747-13.96,11.689-20.508,14.87-28.7,7.8-16.721-14.429-20.2-29-8.328-42.021,10.269-11.261,11.993-24.53,12.289-38.29q1.383-64.363,1.714-128.745c.026-5.572-2.99-11.159-7.266-16.478-4.587,20.552-8.4,41.313-13.905,61.617-17.737,65.441-47.215,123.66-104.724,163.892-3.842,2.687-8.35,4.43-10.842,5.725,17.472-35.463,37.251-70.278,52.157-107.055,25.507-62.927,33.956-129.4,32.641-197.06-.125-6.429-4.043-12.768-6.07-19.189-1.1-3.476-3.718-9.067-2.5-10.146,2.764-2.439,7.435-3.286,11.427-3.614a33.384,33.384,0,0,1,11.507,1.461c36.269,10.257,71.939.908,107.514-3.973,42.637-5.851,84.947-14.044,127.46-20.845,16.531-2.646,33.069-2.189,46.829,8.952a34.638,34.638,0,0,1,10.794,15.228c3.089,9.489-2.266,15.378-12.392,15.806-41.366,1.75-82.745,3.209-124.087,5.384a345.946,345.946,0,0,0-50.176,6.712c5.061,1.242,10.6,1.58,15.075,3.929,7.6,3.987,18.315,7.875,20.668,14.354,2.236,6.156-4.562,15.575-7.23,23.114,7.832,4.143,18.409,9.031,28.2,15.163,6.666,4.172,7.329,9.5,2.662,17.414-4.772,8.087-7.155,18.187-8.273,27.674-1.957,16.6-1.618,33.469-3.356,50.109-.638,6.1-3.783,12.284-7.09,17.627-1.606,2.6-7.468,5.588-9.277,4.584C643.01,377.778,624.221,391.8,603.339,392.311Zm39.05-61.258c9.647-11.969,3.443-25.168,4.909-39.1-9.618,2.068-17.193,3.46-24.642,5.347-17.814,4.515-18.024,4.97-15.361,22.955,8.061-.746,16.161-2.5,24.087-1.914,6.645.493,13.941,2.993,11.372,12.97-3.594,2.952-6.758,7.331-10.871,8.562-8.456,2.531-17.42,3.378-26.306,4.943v24.021c12.587-3.961,24.323-7.654,36.811-11.586ZM564.725,226.41c-1.976,16.774-3.771,32.029-5.56,47.222,44.376,9.382,62.922,6.361,90.636-13.671-25.011-2.213-26.751-27.693-39.623-42.891Z" transform="translate(-306.053 435.427)" fill="#101010"/>
    <path id="Path_363" data-name="Path 363" d="M393.872,265.075c-18.568,20.8-46.608,37.5-25.329,73.639-16.185.831-30.655,1.269-45.072,2.393-18.459,1.438-36.883,3.351-55.3,5.28-2.3.239-5.973,1.365-6.429,2.863-2.82,9.26-9.724,13.832-17.554,9.777-6.854-3.549-13.89-10.647-16.421-17.747-4.556-12.773-5.085-26.91-8.6-40.131-4.579-17.2-9.814-34.293-16-50.975-2.925-7.883-1.676-11.962,6.347-12.19,7.654-.217,16.189-.558,22.883,2.412,20.632,9.154,40.524,3.183,60.55-.883,8.805-1.787,17.379-4.89,25.906-7.835C340.722,224.119,384.4,243.727,393.872,265.075ZM261.625,318.718c17.22-2.453,33.373-4.384,49.336-7.338,3.219-.6,7.326-4.611,8.239-7.835a180.748,180.748,0,0,0,5.213-27.71c1.44-12.01-2.282-16.172-14.143-15.094a435.629,435.629,0,0,0-44.612,6.115c-3.1.609-7.317,6.638-7.269,10.117C258.57,290.173,260.291,303.353,261.625,318.718Z" transform="translate(60.748 21.443)" fill="#101010"/>
  </g>
</svg>
