<svg xmlns="http://www.w3.org/2000/svg" width="93.247" height="94.818" viewBox="0 0 93.247 94.818">
  <g id="Group_7" data-name="Group 7" transform="translate(-57.905 -128.485)">
    <path id="Path_6" data-name="Path 6" d="M136.744,140.048l-3.525-3.217c-.152-.139-.364-.145-.17-.524.229-.45-.472-.6-.665-.956-.019-.16.032-.243.207-.188.563.092.758.636,1.144.946.554.445,1.334.587,1.653,1.366.278.677,1.147.509,1.636.972a58.432,58.432,0,0,1,6.886,7.646,65.588,65.588,0,0,1,5.105,7.827,44.01,44.01,0,0,1,4.521,12.829,44.472,44.472,0,0,1,.7,12.457,59.908,59.908,0,0,1-1.552,8.238c-.374,1.566-1.207,2.971-1.474,4.573-.04.242-.385.532-.526.842a3.213,3.213,0,0,1-.662,1.446c-2.373,4.254-4.491,8.67-7.766,12.356a45.24,45.24,0,0,1-6.543,5.955,35.348,35.348,0,0,1-7.207,4.228c-2.157.947-4.222,2.14-6.579,2.592a3.114,3.114,0,0,0-.721.346c-.033.412.216.157.359.151a3.286,3.286,0,0,1,1.25-.226.119.119,0,0,1,.038.121c-.013.041-.026.061-.039.061-1.267.839-2.757.826-4.173,1.031-2.591.374-5.2.643-7.8.956-.51.317-1.1.018-1.626.217a12.676,12.676,0,0,1-2.693.048,5.045,5.045,0,0,0-1.171-.118,1.992,1.992,0,0,1-.643-.06c-.126-.027-.257-.019-.382-.053-.5-.1-1.019,0-1.516-.135-.307-.084-.627-.1-.937-.158a1.167,1.167,0,0,1-.153-.034,1.023,1.023,0,0,0-.154-.035.837.837,0,0,0,.129.039c.351.088.711.091,1.054.189a5.482,5.482,0,0,0,1.156.089c.275,0,.537.087.809.115a20.9,20.9,0,0,0,4.545.118,3.025,3.025,0,0,1,1.739.079,1.351,1.351,0,0,0,1.428.4c2.243-.287,4.523-.222,6.744-.7.5.507,1.108.307,1.692.268a.139.139,0,0,1,.051.135c-.011.048-.024.072-.038.072a2.7,2.7,0,0,1-1.226.3,27.3,27.3,0,0,0-3.312.586,11.742,11.742,0,0,1-2.69.5,43.072,43.072,0,0,1-8.515-.205,52.146,52.146,0,0,1-12.744-2.819,49.735,49.735,0,0,1-10.585-5.33,43.941,43.941,0,0,1-9.834-8.542,50.794,50.794,0,0,1-4.837-6.451q-.5-.849-1-1.7a1.293,1.293,0,0,1-.288-.312,5.782,5.782,0,0,1-.508-1.164,27.766,27.766,0,0,1-2.784-8.022,4.494,4.494,0,0,0-.18-.524c-.181-.144-.031-.359-.115-.524q-.172-2.337-.343-4.674c.712-.16.228.49.449.662.058.113.119.323.173.322.21-.008.066-.194.1-.3.052-.166-.138-.375.091-.51.471-.032.453.3.491.672.034-.3-.071-.55-.025-.8.067-.557-.28-1.092-.083-1.655.116-.2-.2-.562.235-.652l.321,1.3c.218.285.085.611.106.888.123-.27-.112-.6.089-.9.417-.684-.021-1.475.291-2.192a5.071,5.071,0,0,0,.41-1.637c.044-.553.881-.494,1.232-.945.181-.233.617-.267.938-.391.141.046.153.188.218.291a1.385,1.385,0,0,1-.006-.317,2.659,2.659,0,0,1-.01-1.428c.422,0,.357.607.765.593.269-.057.29-.257.292-.481,0-.143-.032-.338.226-.3.435.089.333-.235.256-.4a6.069,6.069,0,0,1-.254-1.08c-.077-.305-.372-.676.3-.664.2,0,.156-.229.127-.391-.074-.418-.146-.837-.2-1.257-.021-.15-.05-.361.181-.355.1,0,.187.162.281.251a5.589,5.589,0,0,1,.2,2.349.906.906,0,0,0,.12-.68,8.1,8.1,0,0,1-.173-2.016,9.407,9.407,0,0,1,.482-1.712c.456.146.086.582.287.818.076.307-.346.627.026.926.43.059.115-.391.328-.481l0,0c.136-.365.038-.78.239-1.132a.825.825,0,0,1,.383-.559.719.719,0,0,0,.528-.525c.06-.226.2-.371.468-.243l.056.679c.28-.187.6-.291.572-.693-.015-.217-.085-.439.195-.541.351-.129.2.4.513.373.12-.354-.26-1.218.721-.787.06.026.223-.122.3-.218.539-.628,1.132-.594,1.514.192.265.546.767.994.765,1.668a.382.382,0,0,0,.126.283,1.228,1.228,0,0,1,.742,1.382,31.8,31.8,0,0,0,.478,5.145c.151,1.247.182,2.507.4,3.749a5.247,5.247,0,0,0,.367,1.4,9.675,9.675,0,0,1,.854,3.264c-.147.139-.132.194.135.506a24.655,24.655,0,0,1,1.335,2.97,24.544,24.544,0,0,1-1.828-1.9,17.6,17.6,0,0,0,2.672,4.48,3.671,3.671,0,0,1,.758,1.233c.066.068.084.167.151.235s.12.134.187.192.116.122.179.178a2.141,2.141,0,0,0,.167.165.086.086,0,0,0,.129.033,9.988,9.988,0,0,0,1.152,1.352,30.51,30.51,0,0,0,5.815,5.155,13.754,13.754,0,0,0,8.654,2.5c1.317,0,2.634-.069,3.951-.107.5-.066,1-.173,1.5-.246.264-.086.57-.016.8-.216a26.133,26.133,0,0,0,7.678-1.36,29.24,29.24,0,0,0,10.214-5.218.726.726,0,0,1,.221-.081.535.535,0,0,1,.589.033c-.535.861-1.505,1.236-2.173,1.948-.13.283-.406.475-.491.786-1.492.8-2.973,1.617-4.538,2.268-.261.287-.688.246-.97.49l-.971.5c-.221.3-.6.27-.89.423-1.381.447-2.815.674-4.222,1.007-.587-.046-1.14.286-1.579.2a12.444,12.444,0,0,0,2.032-.325,25.942,25.942,0,0,0,4.058-.973.8.8,0,0,1,.26.012c.128.056.226.131.19.293-.242.566-.811.464-1.248.564a48.752,48.752,0,0,1-8.141,1.4,6.621,6.621,0,0,0-1.82.456,26.749,26.749,0,0,1-2.733-.08c.013,0,.134.194.11.088-.011-.046.006-.071.049-.064a53.825,53.825,0,0,0,5.833.392l2.257-.183c.308.332.616.122.925,0,.543-.345,1.145.081,1.7-.134a23.983,23.983,0,0,0,11.171-3.785,17.161,17.161,0,0,0,3.186-2.338c3.163-3.12,5.841-6.586,7.167-10.929.112-.366,0-.921.686-.965.228-.014.179-.417.236-.641a36.689,36.689,0,0,0,.938-10.674c-.089-2.2-1.184-3.973-2.175-5.742a38.529,38.529,0,0,0-10.182-12.113,1.587,1.587,0,0,1-.58-.756.341.341,0,0,1,.427-.04c.487.349.972.7,1.464,1.044.226.158.405.423.741.355.257.253.035-.216.185-.123a40.426,40.426,0,0,1,4.693,5.086c.436.552,1.028.905,1.474,1.425a3.708,3.708,0,0,1,.891,1.077,7.123,7.123,0,0,1,.5.829c.266.306.364.718.648,1.012a11.834,11.834,0,0,1,1.076,2.121,11.148,11.148,0,0,0-1.1-2.2c-.283-.3-.369-.723-.655-1.019a3.968,3.968,0,0,0-.518-.854c-.164-.414-.722-.645-.561-1.21.658.074.908.583,1.186,1.082.3.54.637,1.061.957,1.591a.64.64,0,0,1,.339.38,5.256,5.256,0,0,0,.317.5c.046.088-.087.095.007.043s-.03-.091-.02-.146a2.793,2.793,0,0,0-.347-.836c-.039-.1-.079-.2-.112-.3a15.886,15.886,0,0,0-3.4-7.074,24.751,24.751,0,0,0-7.089-6.156,31.828,31.828,0,0,0-6.689-3.123,33.591,33.591,0,0,0-4.888-1.294c-.685-.081-1.16-.687-1.96-.764a39.894,39.894,0,0,0-12.3.858c-1.29.278-2.567.619-3.85.931a1.318,1.318,0,0,0-.864.122,2.589,2.589,0,0,0-.73.167,1.559,1.559,0,0,1-.637.2c-.462.054-.9.217-1.364.275a.7.7,0,0,1-.3.082c-.152-.02-.257.09-.382.144-.419-.264-.642.206-.976.262-3.167,1.461-6.318,2.949-9.4,4.585a21.445,21.445,0,0,1-3.067,1.739l-1.093.532c-.238-.076-.471.181-.71.008-.111-.105-.2-.218-.113-.38a19.444,19.444,0,0,0,2.463-1.785,19.042,19.042,0,0,1,3.008-2.344c1.486-.969,3.083-1.724,4.582-2.658a2.029,2.029,0,0,1,.786-.556c.177-.085.361-.154.53-.231-.071-.007-.113.036-.166.055a4.685,4.685,0,0,0-.475.216,3.125,3.125,0,0,1-1.013.346,33.8,33.8,0,0,0-5.342,2.911c-.234.21-.566-.031-.8.176l-1.842,1.086c-.085.018-.117-.012-.088-.1l.986-1.115c.141-.34.546-.469.665-.827a3.649,3.649,0,0,1,.372-.514.288.288,0,0,1,.19-.056l.14.008c-.032-.1-.117.009-.167-.041-.11-.048-.154-.12-.1-.232l1.627-1.444c.515-.786,1.422-.985,2.159-1.438a1.166,1.166,0,0,0,.437-.251,3.458,3.458,0,0,1-.638.342c-.569.161-.962.695-1.581.751a.868.868,0,0,1-.422-.363.375.375,0,0,1,0-.226.594.594,0,0,1,.244-.241c1.44-.683,2.775-1.563,4.213-2.248.339-.211.7-.385,1.022-.625a1.293,1.293,0,0,0,.469-.419c.257-.557.834-.627,1.308-.831a14.742,14.742,0,0,0,1.607-.682c-.022-.2-.39-.218-.248-.491a21.311,21.311,0,0,1,4.764-2.18,3.7,3.7,0,0,0,.754-.153c-.171-.026-.324.113-.5.084a4.367,4.367,0,0,0-1.781.446,28.03,28.03,0,0,0-5.013,1.721,15.987,15.987,0,0,1-1.808.883,3.379,3.379,0,0,1-.751.485c-.1.04-.206.088-.323.127a1.149,1.149,0,0,0,.292-.1c.335-.094.551-.383.86-.519a.465.465,0,0,1,.349,0,.381.381,0,0,1,.205.406c-.14.437-.542.568-.895.743a33.384,33.384,0,0,0-3.664,1.984,3.759,3.759,0,0,0-.843.731.824.824,0,0,1-.32.129c-.566-.037-.852.517-1.342.64l-5.328,3.9c-.169.052-.215-.027-.19-.18.566-.673,1.445-1.062,1.772-1.951.125-.066.279-.024.4-.109.15-.082.215-.247.342-.352a2.209,2.209,0,0,0,.425-.43,1.285,1.285,0,0,1,.209-.205.4.4,0,0,0,.143-.2,1.341,1.341,0,0,0-.036-.154.15.15,0,0,1,.124-.19.428.428,0,0,1,.346-.26c.9-.2,1.155-1.114,1.8-1.6a3.729,3.729,0,0,1,1.308-.714.1.1,0,0,0,.174.042c.033-.031-.007-.049-.064,0-.037.03-.091.009-.133-.024-.084-.175.1-.229.154-.341.03-.058.1-.119.027-.182s-.136-.021-.2.02a1.037,1.037,0,0,1-1.433.091.179.179,0,0,1-.015-.252l2.747-2.219c.1-.084.263-.142.311-.251.706-1.59,2.415-1.844,3.638-2.741.085-.062.251-.063.286-.136.651-1.393,2.29-1.282,3.294-2.17.694-.614,1.574-1.015,2.262-1.675.375-.359.949-.2,1.422-.41.573-.256,1.138-.568,1.664-.864a17.211,17.211,0,0,1,4.123-1.24c.064-.018.106-.115.169-.188a2.545,2.545,0,0,0-2.071.1c-.18.039-.235-.042-.2-.209.181-.244.026-.323-.185-.358a4.936,4.936,0,0,0-1.333-.171c-.3.031-.6.047-.559-.4a14.166,14.166,0,0,1,1.483-.175c.331.083.674.107,1.01.165a2.41,2.41,0,0,0,1.825-.156,4.386,4.386,0,0,1,1.224-.057,3.177,3.177,0,0,0,.771.048c.046,0,.072,0,.078,0s-.016,0-.031,0a1.787,1.787,0,0,1-1.145-.235c-.158-.173-.059-.307.066-.437a.476.476,0,0,1,.242-.065,5.35,5.35,0,0,0,.987.034,8.667,8.667,0,0,1,1.112-.057c.545.52,1.232.364,1.879.388.165,0,.322-.012.327-.239a.291.291,0,0,1,.148-.141,1.66,1.66,0,0,1,.768.071c.975.3,1.968-.149,2.948.035-1.81-.642-3.67-.389-5.522-.273a3.471,3.471,0,0,1-1.925-.463c-.275-.078-.663.057-.741-.391a4.83,4.83,0,0,1,1.555-.184,13.463,13.463,0,0,0,2.486-.324c2.033-.533,4.058-.213,6.08-.313,1.628-.081,3.18.514,4.781.73a37.207,37.207,0,0,1,4.314.948,41.271,41.271,0,0,1,7.508,2.7c.182.1.41.04.584.166a1.864,1.864,0,0,1,.183.093,2.8,2.8,0,0,0,.555.251c.179.1.415-.015.579.146a.789.789,0,0,0,.745.388,1.255,1.255,0,0,1,1.082.6c.3.479.873.356,1.262.648,1.484,1.114,2.992,2.2,4.486,3.3.626.462,1.239.942,1.858,1.414a8.158,8.158,0,0,1,1.834,1.348c.044.09.106-.034.043.053-.01.014,0,.046.008.07.039-.04.021-.069-.024-.116-.067-.072-.134-.145-.2-.217a8.8,8.8,0,0,1-1.232-.993C136.865,140.52,136.577,140.376,136.744,140.048Z" transform="translate(-3.258 -0.567)" fill="#fefefe"/>
    <path id="Path_7" data-name="Path 7" d="M216.945,297.756c-.717-.059-.466.565-.452.81a8.853,8.853,0,0,0,1.25,4.376,7.348,7.348,0,0,0,3.625,2.711c2.093.8,4.235.522,6.367.262.472-.057.795-.483,1.134-.819.072-.071.338-.7.455.033.027.172.2-.038.294-.085a2.875,2.875,0,0,0,1.752-2.245.723.723,0,0,1,.327-.439c.227-.622-.111-1.341.331-1.926.258-.338-.078-.718.082-1.087.078-.18.2-.457.287-.331.228.336.922.455.6,1.089-.174.055-.336.116-.169.34a22.2,22.2,0,0,1-1.048,3.178c1.76-1.642,1.423-4.216,2.648-6.108-.369.827-.042,1.728-.324,2.542-.176.51-.631.953-.217,1.582.066.1-.3.522-.5.755-.7.781-.709.774.222,1.193a1.909,1.909,0,0,0-.853,1.189c-.131.53-.7.743-.962,1.191a4.507,4.507,0,0,1-.625.737c-.134.142-.316.27-.06.439.282.186.285-.091.364-.242.047-.091.108-.176.206-.332.131.321.341.6.3.834-.023.15-.532.126-.479.524a.777.777,0,0,1-.69-.439c-.1-.146-.1-.286-.3-.154-.6.4-1.387.641-1.318,1.723-.468-.606-.856-.488-1.336-.164a3.348,3.348,0,0,1-2.256.225c-1.241-.108-2.5.269-3.738-.242-.437-.18-.987.094-1.549.014-1.822-.258-2.82-1.649-4.065-2.69-.361-.3-.493-.874-.746-1.312-.442-.763-.3-1.811-1.175-2.369-.167-.107-.09-.319-.07-.514.038-.377.093-.781-.429-.986-.19-.074-.318-.42-.388-.666-.273-.966-.26-.97-1.01-.467-.086-.643-.086-.645.512-.908.284-.125.547-.2.283-.628a1.127,1.127,0,0,1-.015-.856,4.4,4.4,0,0,0-.418-3.273c-.2-.492-.053-1-.287-1.48-.175-.361-.261-.363-.572-.174-.442.268-.643,1-1.368.751-.01,0-.051.075-.072.118-.619,1.212-2.04,2.128-1.371,3.818a2.636,2.636,0,0,1,.162,1.112c-.052.769.119,1.195,1.021.776-.09.614-.763.455-.916.873.153.236.408-.069.486.009.279.567-.746.174-.37.754.125.074.282.13.181.329,0,.238,0,.473.271.589.177-.059.221.021.19.181-1.454.8-.779,2.138-.7,3.231a4.023,4.023,0,0,0,.5,1.929c.251.384.434.528.738.024a17.8,17.8,0,0,0,1.1-2.246c.163-.038.235.017.191.188-.241,1.117-1.022,2.068-1,3.266,0,.184-.123.285-.286.347a3.736,3.736,0,0,1-3.756-.293.7.7,0,0,1-.232-.4,20.3,20.3,0,0,1-.464-3.155c.262-.071.244.4.427.22a.778.778,0,0,0,.088-.829,4.1,4.1,0,0,1-.209-.622.935.935,0,0,0-.272-.447.358.358,0,0,1-.019-.412c-.139-.34-.406-.652-.226-1.081.356,0,.163.507.543.538.019-.382.106-.748-.29-1.031a1.055,1.055,0,0,1-.161-1.48c.211-.361.4-.508.023-.831-.09-.077-.057-.3-.093-.544A5.345,5.345,0,0,0,204.4,299.7c-.08.1-.083.3-.176.346-1.461.8-2.056,2.453-3.41,3.389a13.729,13.729,0,0,0-2.174,2.349c-.459.515-.94.1-1.377.323-.14.07-.265-.366-.121-.614-.34-.147-.5.5-.876.064a1.961,1.961,0,0,1-.548-1.767c-.257-.129-.33.253-.569.19a1.969,1.969,0,0,1,.243-1.59,14.737,14.737,0,0,1,2.578-2.033c.5-.221.542-.762.853-1.119a20.316,20.316,0,0,1,2.911-2.505,26.671,26.671,0,0,0,2.279-2.087,37.953,37.953,0,0,1,4.667-3.56,11.256,11.256,0,0,1,1.7-1.1c.525-.255.732-.79,1.128-1.439-1.23.134-2.3.255-3.378.367-.362.038-.8.511-1.048-.211-.058-.171-.288.032-.4.12a1.011,1.011,0,0,1-1.041.222c-.354-.115-1.011.036-.33-.608-.483-.512.088-1.271-.39-1.756-.356-.361-.259-.6.04-.913.354-.365.681-.869,1.254-.629.313.131.476.133.69-.082a.636.636,0,0,1,.649-.219c.329.121-.087.429.063.616.375.06.664-.306,1.036-.1a.267.267,0,0,0,.374-.209c.058-.962.809-.563,1.215-.532a3.418,3.418,0,0,0,1.26-.129c.111-.033,1,.087.324-.536.377-.348.768-.753,1.305-.71a2,2,0,0,0,2.159-1.058c.194-.362.624-.386.947-.566.645-.36,1.379-.608,1.47-1.543.027-.275.342-.53.546-.777.285-.343.889-.508.608-1.164-.017-.039.277-.2.413-.32.114-.1.29-.2.175-.39a.294.294,0,0,0-.429-.086c-.418.3-1.023.472-.949,1.152.055.508-.374.54-.644.7-.245.142-.316-.078-.32-.292a.444.444,0,0,1,.169-.271c.147-.118.346-.234,0-.352a1.738,1.738,0,0,0-1.674,1.034c-.176.315-.253.752-.8.567a.307.307,0,0,0-.27.132c-.406,1.127-1.609,1.387-2.311,2.141-1.168,1.253-2.508,1.129-3.943.978a7.3,7.3,0,0,1-6.976-5.521c.521-.011.591.492.932.615.263-.1,0-.408.233-.567a6.262,6.262,0,0,0,4.984,2.743,8.175,8.175,0,0,1,2.218.4,3.451,3.451,0,0,0,3.179-.635,33.382,33.382,0,0,1,5.8-3.65,2.15,2.15,0,0,1,2.319.289c.459.338.844.4,1.109-.212a3.305,3.305,0,0,1-.247,4.359c-.475.438-.733,1.01-1.176,1.445-.3.3-.46.479.055.772.8.455.917,1.538,1.761,2.023.278.16-.341,1.368-.793,1.428-1.939.255-3.77.994-5.722,1.219a4.271,4.271,0,0,0-2.317.467c-.228.172-.645.267-.434.624.174.294.4-.087.606-.139.1-.024.193-.045.287-.066.111.261-.357.243-.184.457.145.178.281,0,.394-.1.28-.25.589-.172,1.025-.111L214.177,290l.079.119.921-.378a.158.158,0,0,1,.022.222l-.475.286c-.693.417-.991,1.112-.557,1.635a4.352,4.352,0,0,1,.83,2.371c.111.853.56,1.585.748,2.41.106.463.644.551,1.055.705C216.972,297.453,217.075,297.561,216.945,297.756Z" transform="translate(-111.324 -119.965)" fill="#fefefe"/>
    <path id="Path_8" data-name="Path 8" d="M310.573,353.573l-.145-.385a2.408,2.408,0,0,1,1.286-.392,2.063,2.063,0,0,0,1.285-.381c.161-.127.355-.259.581-.076.339.272.584-.128.617-.245.1-.365-.343-.081-.446-.337,1.081-.419,1.608-1.484,2.464-2.227-.523-.014-.922.7-1.471.151.263-.352.877-.4,1.057-1-.452-.057-.669.312-.98.459-.164.085-.341-.054-.5.035-.423.219-.74.636-1.26.669-.12-.01-.223-.035-.19-.194a22.008,22.008,0,0,0,2.735-2.194c.357-.438,1.224-.738.547-1.593-.134-.169.211-.405.4-.523,1.034-.636,1.975-.114,2.144,1.128a3.811,3.811,0,0,1-1,2.693,2.665,2.665,0,0,1-.46.626c-.371.105-.777.136-.98.445.561-.412.561-.412.64.019-.63.619-1.244,1.255-1.894,1.852a4.126,4.126,0,0,1-2.35,1.047A13.972,13.972,0,0,1,310.573,353.573Z" transform="translate(-204.951 -175.782)" fill="#fefefe"/>
    <path id="Path_9" data-name="Path 9" d="M236.805,134.549a2.673,2.673,0,0,0,1.908.461c.131.1.3.187.129.386-.26.22-.559,0-.832.071a1.869,1.869,0,0,1-1.066.181c-.311-.18-.672.015-.988-.129l-.157-.008a2.959,2.959,0,0,1-1.7.061c.574.171,1.09-.056,1.539.225l1.273.2c-.13.484-.581.059-.8.284l-1.448.024c-.219.094-.436-.016-.655,0a1.736,1.736,0,0,1-.22-.047,3.058,3.058,0,0,0-.786-.089,1.989,1.989,0,0,1-.355-.058,5.583,5.583,0,0,1-1.2-.247l-.2-.209c.2-.578.757-.4,1.146-.474.468-.086.937-.165,1.4-.287A19.584,19.584,0,0,1,236.805,134.549Z" transform="translate(-140.692 -4.922)" fill="#070707"/>
    <path id="Path_10" data-name="Path 10" d="M103.457,237.49c1.853-1.227,3.6-2.616,5.5-3.762a.3.3,0,0,1,.212-.039.238.238,0,0,1,.167.256c-.1.217-.307.308-.479.442-.274.172-.524.378-.784.57-.114.09-.284.007-.388.129a9.07,9.07,0,0,0-1.8,1.277c-.077.14-.126.307-.322.332-1.2,1.7-3.148,2.521-4.616,3.908-.156.147-.336.361-.538.154-.225-.231.114-.352.2-.52.092-.187.373-.218.416-.46-.076-.125.01-.182.1-.24a1.408,1.408,0,0,0,.58-.4,1.266,1.266,0,0,1,.163-.138c.179-.121.359-.24.537-.362a3.579,3.579,0,0,0,.63-.569A1.517,1.517,0,0,0,103.457,237.49Z" transform="translate(-34.439 -85.381)" fill="#f8f8f8"/>
    <path id="Path_11" data-name="Path 11" d="M399.753,359.474c.164.685-.676,1.3-.1,2.021.145-.041.088-.175.086-.286,0-.159-.037-.367.165-.4a.39.39,0,0,1,.412.307,1.8,1.8,0,0,1-.192,1.322.238.238,0,0,1-.326.119,1.658,1.658,0,0,0-1.357.264c-.289-.432-.05-.882-.061-1.317,0-.025.015-.07.029-.072,1.217-.188.462-1.487,1.12-1.987A.16.16,0,0,1,399.753,359.474Z" transform="translate(-276.266 -187.426)" fill="#fefefe"/>
    <path id="Path_12" data-name="Path 12" d="M113.521,268.6l2.07-1.159c.166-.029.224.047.2.2a65.191,65.191,0,0,1-7.233,4.238c-.178.095-.2-.021-.213-.155,1.552-1.128,3.322-1.889,4.92-2.939C113.351,268.726,113.435,268.659,113.521,268.6Z" transform="translate(-40.935 -112.771)" fill="#ededed"/>
    <path id="Path_13" data-name="Path 13" d="M272.872,522.358a12.343,12.343,0,0,1-6.12-.5c.474-.029.947-.079,1.42-.08s.966.047,1.45.073a1.333,1.333,0,0,1,1,.07,1.118,1.118,0,0,0,1.071-.033C272.1,522,272.77,521.471,272.872,522.358Z" transform="translate(-169.503 -319.201)" fill="#0f0f0f"/>
    <path id="Path_14" data-name="Path 14" d="M361.11,257.374l-.427.04c-1.593-.47-2.85-1.574-4.315-2.286-.149-.072-.275-.149-.3-.329l-.01.013c1.584.2,2.8,1.2,4.129,1.936C360.513,256.928,360.8,257.164,361.11,257.374Z" transform="translate(-241.988 -102.518)" fill="#efefef"/>
    <path id="Path_15" data-name="Path 15" d="M388.241,459.37l-.589-.033a1.88,1.88,0,0,0,.947-.868,8.565,8.565,0,0,1,1.726-1.873c.331-.27.434-.759.9-.868a.308.308,0,0,1,.035.411A13.5,13.5,0,0,1,388.241,459.37Z" transform="translate(-267.627 -265.595)" fill="#fefefe"/>
    <path id="Path_16" data-name="Path 16" d="M92.01,290.219l.213.155a15.567,15.567,0,0,1-3.756,2.428c-.27.027-.307-.082-.171-.292Z" transform="translate(-24.603 -131.266)" fill="#e8e8e8"/>
    <path id="Path_17" data-name="Path 17" d="M207.262,140.836l3.8-1.672c.2-.007.469-.218.545.173a31.318,31.318,0,0,1-3.186,1.472,2.313,2.313,0,0,1-1.012.178C207.246,141.053,207.219,140.979,207.262,140.836Z" transform="translate(-121.206 -8.617)" fill="#e5e5e5"/>
    <path id="Path_18" data-name="Path 18" d="M106.643,329.243c.049.273-.236.323-.333.5q-.122.083-.125-.064-.014-.219-.028-.438a1.38,1.38,0,0,1-.024-.972c.832-.289.906-1.007.991-1.729.02-.172.064-.422.317-.375s.231.278.183.462c-.1.385-.225.763-.339,1.144C107.273,328.348,106.651,328.662,106.643,329.243Z" transform="translate(-39.077 -160.432)" fill="#e3e3e3"/>
    <path id="Path_19" data-name="Path 19" d="M312.061,369.391l.162.126q.065.076.02.108a.122.122,0,0,1-.073.02c-.833.467-1.507,1.251-2.736,1.3C310.209,370.062,311.288,369.972,312.061,369.391Z" transform="translate(-204.145 -195.523)" fill="#fefefe"/>
    <path id="Path_20" data-name="Path 20" d="M228.074,136.886c-.14-.19-.356-.138-.545-.173a6.052,6.052,0,0,1,2.7-.615,1.065,1.065,0,0,1,.5.035.31.31,0,0,1,.141.139l-2.642.624C228.179,136.891,228.126,136.887,228.074,136.886Z" transform="translate(-137.669 -6.165)" fill="#dbdbdb"/>
    <path id="Path_21" data-name="Path 21" d="M411.8,144.6c.766.317,1.606.534,1.947,1.429q.078.06.049.115c-.019.035-.038.053-.057.053l-2.17-1.377A.283.283,0,0,1,411.8,144.6Z" transform="translate(-287.041 -13.076)" fill="#dfdfdf"/>
    <path id="Path_22" data-name="Path 22" d="M217.355,148.631a.822.822,0,0,0-.057-.232c-.177-.3-.3-.6.065-.84.124-.082.4-.317.426.007.027.343.992.447.238.948C217.813,148.612,217.616,148.805,217.355,148.631Z" transform="translate(-129.227 -15.351)" fill="#1e1e1e"/>
    <path id="Path_23" data-name="Path 23" d="M98.813,353.521c.316.678.119,1.46.432,2.139-.249.161-.2.416-.213.655-.01.167.053.418-.274.335-.37-.345-.044-.726-.054-1.089-.016-.564-.027-1.128-.041-1.692Z" transform="translate(-33.013 -182.642)" fill="#262626"/>
    <path id="Path_24" data-name="Path 24" d="M145.881,224.239l.391-.03a.342.342,0,0,1,.4-.062.219.219,0,0,1,.1.184c-.088.37-.423.475-.693.651-.528.217-.9.708-1.465.857-.444-.337.2-.422.154-.667A4.827,4.827,0,0,1,145.881,224.239Z" transform="translate(-70.246 -77.61)" fill="#d2d2d2"/>
    <path id="Path_25" data-name="Path 25" d="M108.5,336.185c-.237-.305-.217-.63.125-.776s.3-.507.516-.7c-.059.3.161.46.336.64-.349-.034-.326.249-.3.431C109.255,336.45,108.869,336.287,108.5,336.185Z" transform="translate(-40.939 -167.375)" fill="#1f1f1f"/>
    <path id="Path_26" data-name="Path 26" d="M119.057,288.747a10.278,10.278,0,0,1,2.146-1.463c.191-.044.257.038.223.22l-2.072,1.307A.275.275,0,0,1,119.057,288.747Z" transform="translate(-49.632 -128.874)" fill="#bdbdbd"/>
    <path id="Path_27" data-name="Path 27" d="M396.585,425.618c.7,0,.8-.112.6-.632-.053-.136-.126-.234.008-.339.168-.132.311-.011.424.089.142.126.009,1.311-.164,1.342A.657.657,0,0,1,396.585,425.618Z" transform="translate(-274.878 -240.323)" fill="#fefefe"/>
    <path id="Path_28" data-name="Path 28" d="M427.023,154l-.207.188c-.788-.366-1.382-1.016-2.124-1.448a.387.387,0,0,1,.186-.348Z" transform="translate(-297.69 -19.4)" fill="#dbdbdb"/>
    <path id="Path_29" data-name="Path 29" d="M152.641,228.658l1.554-.87c.142,0,.347-.155.372.146l-2.247,1.354-.171-.3A.407.407,0,0,1,152.641,228.658Z" transform="translate(-76.489 -80.564)" fill="#212121"/>
    <path id="Path_30" data-name="Path 30" d="M386.868,616.4a17.273,17.273,0,0,1,2.552-.669c.166-.069.224,0,.213.164a2.827,2.827,0,0,1-1.918.535.6.6,0,0,0-.489.182C387.089,616.567,386.94,616.548,386.868,616.4Z" transform="translate(-266.991 -395.432)" fill="#e5e5e5"/>
    <path id="Path_31" data-name="Path 31" d="M458.437,186.852a8.582,8.582,0,0,0,1.649,1.6.36.36,0,0,1-.02.424c-.542-.563-1.309-.859-1.785-1.5C458.33,187.2,458.242,186.985,458.437,186.852Z" transform="translate(-324.95 -47.371)" fill="#2c2c2c"/>
    <path id="Path_32" data-name="Path 32" d="M215.739,231.75c.212-.04.441-.029.606-.206a1.994,1.994,0,0,0,.854-.121c.286-.238.571-.43.846.014a13.83,13.83,0,0,1-2.3.749c-.081-.038-.169-.066-.208-.16C215.531,231.879,215.645,231.822,215.739,231.75Z" transform="translate(-127.939 -83.341)" fill="#9f9f9f"/>
    <path id="Path_33" data-name="Path 33" d="M387.029,405.9c-.037.037-.078.109-.11.1-.471-.059-.257-.457-.248-.657.02-.489.375-.9.657-.921A1.463,1.463,0,0,1,387.029,405.9Z" transform="translate(-266.786 -223.96)" fill="#fefefe"/>
    <path id="Path_34" data-name="Path 34" d="M284.057,520.771c-.24.57-.656.268-1,.174a2.547,2.547,0,0,0-1.072-.212,2.763,2.763,0,0,1,1.813-.283l-.893.237Z" transform="translate(-181.868 -318.085)" fill="#979797"/>
    <path id="Path_35" data-name="Path 35" d="M130.669,283.162l-.223-.22a7.6,7.6,0,0,1,1.639-.958c.16-.06.332-.151.337.147Z" transform="translate(-58.875 -124.532)" fill="#a6a6a6"/>
    <path id="Path_36" data-name="Path 36" d="M185.6,165.138l1.936-.823c.194-.052.244.039.211.212a6.293,6.293,0,0,1-1.8.777C185.847,165.215,185.674,165.283,185.6,165.138Z" transform="translate(-103.642 -29.068)" fill="#989898"/>
    <path id="Path_37" data-name="Path 37" d="M310.756,522.445c-.165.258-.463.2-.7.285a.307.307,0,0,1-.413-.123c-.124-.272.336-.114.28-.353a3.378,3.378,0,0,1,1.285-.324c.147-.081.279-.091.378.074C311.434,522.384,310.927,522.1,310.756,522.445Z" transform="translate(-204.298 -319.28)" fill="#888"/>
    <path id="Path_38" data-name="Path 38" d="M393.043,433.547c-.081.214-.206.238-.334.163-.466-.274-.2.866-.712.379-.222-.21.025-.491.118-.733.133-.346.334-.139.508-.066C392.779,433.357,392.98,433.38,393.043,433.547Z" transform="translate(-271.081 -247.28)" fill="#fefefe"/>
    <path id="Path_39" data-name="Path 39" d="M196.089,160.263l-.211-.212,2.082-.983c.16-.058.224,0,.2.167Z" transform="translate(-111.981 -24.805)" fill="#787878"/>
    <path id="Path_40" data-name="Path 40" d="M145.286,229.117a3.094,3.094,0,0,1,1.461-.969.241.241,0,0,1,.214.192l-.211.152a1.561,1.561,0,0,1-1.2.757.335.335,0,0,1-.109-.014Z" transform="translate(-70.92 -80.888)" fill="#1f1f1f"/>
    <path id="Path_41" data-name="Path 41" d="M529.615,468.644a3.174,3.174,0,0,1,.662-1.446A1.062,1.062,0,0,1,529.615,468.644Z" transform="translate(-382.847 -274.904)" fill="#6a6a6a"/>
    <path id="Path_42" data-name="Path 42" d="M137.618,247.29c-.018.521-.405.685-.806.836-.054-.173-.184-.207-.343-.187a.139.139,0,0,1-.015-.224c.222-.266.717-.149.818-.584C137.375,247.211,137.544,247.146,137.618,247.29Z" transform="translate(-63.711 -96.296)" fill="#4c4c4c"/>
    <path id="Path_43" data-name="Path 43" d="M385.191,607.778q0-.091,0-.182a4.66,4.66,0,0,1,1.432-.461c.153-.071.2-.006.179.142A2.144,2.144,0,0,1,385.191,607.778Z" transform="translate(-265.63 -388.456)" fill="#cecece"/>
    <path id="Path_44" data-name="Path 44" d="M61.507,413.683c-.3-.119.056-.682-.449-.662l-.2-1C61.681,412.482,61.453,413.131,61.507,413.683Z" transform="translate(-2.397 -230.122)" fill="#989898"/>
    <path id="Path_45" data-name="Path 45" d="M314.586,621.4l-1.777.025a.117.117,0,0,1-.052-.123c.012-.044.025-.066.04-.066a3.475,3.475,0,0,1,1.632-.137Z" transform="translate(-206.839 -399.785)" fill="#676767"/>
    <path id="Path_46" data-name="Path 46" d="M155.411,258.417l1.945-.969c.067.043.161.057.177.158l-2.113,1.017A.124.124,0,0,1,155.411,258.417Z" transform="translate(-79.096 -104.668)" fill="#a8a8a8"/>
    <path id="Path_47" data-name="Path 47" d="M271.886,404.742l-.181-.329a1.157,1.157,0,0,0,.849-.348c.127-.139.289-.1.388.074a.227.227,0,0,1-.109.331C272.544,404.644,272.287,404.948,271.886,404.742Z" transform="translate(-173.523 -223.598)" fill="#fefefe"/>
    <path id="Path_48" data-name="Path 48" d="M146.614,224.756a2.264,2.264,0,0,1-1.114.933l-.14-.136C145.712,225.184,145.972,224.669,146.614,224.756Z" transform="translate(-70.98 -78.127)" fill="#252525"/>
    <path id="Path_49" data-name="Path 49" d="M67.26,408.542c-.01.587.314,1.145.156,1.746-.194.051-.3-.022-.319-.223l-.108-.229a5.61,5.61,0,0,1-.043-1.083c-.064-.181.064-.209.19-.239Q67.225,408.413,67.26,408.542Z" transform="translate(-7.325 -227.24)" fill="#323232"/>
    <path id="Path_50" data-name="Path 50" d="M323.96,366.526a.659.659,0,0,1,.052-.128l1.283-.85c.417.138.1.292.006.434-.18.283-.619.346-.647.759C324.288,367.1,324.182,366.628,323.96,366.526Z" transform="translate(-215.934 -192.404)" fill="#fefefe"/>
    <path id="Path_51" data-name="Path 51" d="M326.482,366.378c-.518-.051-.147-.209-.048-.352.207-.3.8-.287.69-.841.313-.269.318.191.508.214Z" transform="translate(-217.763 -192.041)" fill="#fefefe"/>
    <path id="Path_52" data-name="Path 52" d="M301.574,242.974a5.573,5.573,0,0,1-1.678-.1c.114-.219.373-.034.512-.184.608.061,1.233-.176,1.827.107C302.065,243.043,301.769,242.82,301.574,242.974Z" transform="translate(-196.403 -92.662)" fill="#646464"/>
    <path id="Path_53" data-name="Path 53" d="M428.572,308.445l.7,1.18c.052.176-.025.231-.191.2a4.117,4.117,0,0,1-.788-1.145C428.453,308.684,428.317,308.334,428.572,308.445Z" transform="translate(-300.611 -146.041)" fill="#fefefe"/>
    <path id="Path_54" data-name="Path 54" d="M142.438,277.278l-1.314.763c-.113-.076-.3-.012-.363-.185.631-.1,1.059-.626,1.658-.794A.14.14,0,0,1,142.438,277.278Z" transform="translate(-67.247 -120.587)" fill="#6e6e6e"/>
    <path id="Path_55" data-name="Path 55" d="M67.3,401.66a.179.179,0,0,0-.123-.028c.077-.541-.4-1.043-.1-1.642.427.238.359.641.38,1.007C67.229,401.178,67.384,401.447,67.3,401.66Z" transform="translate(-7.361 -220.357)" fill="#d0d0d0"/>
    <path id="Path_56" data-name="Path 56" d="M377.267,620.541a3.716,3.716,0,0,1,1.464-.31c.04.036.053.071.039.106s-.027.053-.041.053a3.546,3.546,0,0,1-1.448.354.132.132,0,0,1-.053-.132C377.24,620.564,377.253,620.541,377.267,620.541Z" transform="translate(-259.165 -399.106)" fill="#efefef"/>
    <path id="Path_57" data-name="Path 57" d="M340.645,370.444c-.01-.143-.035-.29-.222-.162a3.519,3.519,0,0,1-.727.444,1.045,1.045,0,0,1,1.29-.746Z" transform="translate(-228.705 -195.974)" fill="#fefefe"/>
    <path id="Path_58" data-name="Path 58" d="M253.587,416.337c.02.142.039.285.19.358.112.073.005.367.279.277l.031.846C253.541,417.452,253.124,417.043,253.587,416.337Z" transform="translate(-158.657 -233.625)" fill="#fefefe"/>
    <path id="Path_59" data-name="Path 59" d="M388.812,405.9a5.805,5.805,0,0,0,.3-1.473l.163,0a3.005,3.005,0,0,1-.331,1.926C388.929,406.2,388.976,406.019,388.812,405.9Z" transform="translate(-268.569 -223.96)" fill="#fefefe"/>
    <path id="Path_60" data-name="Path 60" d="M175.428,260.289a5.42,5.42,0,0,1,1.7-.768,4.694,4.694,0,0,1-1.534.9C175.427,260.521,175.418,260.417,175.428,260.289Z" transform="translate(-95.381 -106.351)" fill="#797979"/>
    <path id="Path_61" data-name="Path 61" d="M79.644,490.291a2.975,2.975,0,0,1,.644,1.151.232.232,0,0,1-.342.007C79.821,491.07,79.334,490.784,79.644,490.291Z" transform="translate(-17.561 -293.647)" fill="#5a5a5a"/>
    <path id="Path_62" data-name="Path 62" d="M120.942,273.625l.17.331c.136.328-.165.353-.328.473a.868.868,0,0,0-.644-.144q-.065-.054-.046-.111c.013-.038.026-.058.04-.058Z" transform="translate(-50.47 -117.798)" fill="#e7e7e7"/>
    <path id="Path_63" data-name="Path 63" d="M226.871,150.7a3.936,3.936,0,0,1-1.421.309,1.275,1.275,0,0,1,1.234-.484C226.863,150.462,226.9,150.547,226.871,150.7Z" transform="translate(-135.982 -17.872)" fill="#dedede"/>
    <path id="Path_64" data-name="Path 64" d="M62.639,329.574c-.093.411-.491.474-.77.672-.177.043-.227-.041-.2-.2.26-.165.355-.512.672-.616C62.514,329.319,62.574,329.454,62.639,329.574Z" transform="translate(-3.048 -163.056)" fill="#7f7f7f"/>
    <path id="Path_65" data-name="Path 65" d="M161.511,267.689a2.837,2.837,0,0,1-1.612.807l.01.012a2.2,2.2,0,0,1,1.611-.808Z" transform="translate(-82.78 -112.98)" fill="#6f6f6f"/>
    <path id="Path_66" data-name="Path 66" d="M146.685,230.728c.432-.2.694-.673,1.2-.757q0,.1,0,.2c.018.366-.39.45-.488.739a.2.2,0,0,1-.133.041c-.136.046-.271.091-.358-.079Z" transform="translate(-72.055 -82.367)" fill="#e3e3e3"/>
    <path id="Path_67" data-name="Path 67" d="M391.093,270.45c0,.089.021.194-.1.221-.02,0-.056-.064-.085-.1-.291-.4-.768-.661-.85-1.235Z" transform="translate(-269.58 -114.318)" fill="#909090"/>
    <path id="Path_68" data-name="Path 68" d="M67.662,325.292c.356-.213.747-.808,1.07-.459.2.21-.57.406-.847.678A.289.289,0,0,1,67.662,325.292Z" transform="translate(-7.919 -159.272)" fill="#949494"/>
    <path id="Path_69" data-name="Path 69" d="M315.64,522.61c.09-.461.506-.261.766-.377.113-.078.2-.252.373-.091.182.211.444.048.651.14C316.866,522.571,316.219,522.405,315.64,522.61Z" transform="translate(-209.182 -319.444)" fill="#2a2a2a"/>
    <path id="Path_70" data-name="Path 70" d="M280.944,509.957a3.158,3.158,0,0,1-1.664.125l.679-.15c.123-.128.3-.163.439-.266a1.633,1.633,0,0,1,.226-.189l.465.15C281.2,509.805,280.932,509.82,280.944,509.957Z" transform="translate(-179.671 -309.219)" fill="#d2d2d2"/>
    <path id="Path_71" data-name="Path 71" d="M99.467,302.969l.827.163a.085.085,0,0,1,.027.135l-.348.182c-.216.088-.387.364-.673.161l.009.011c-.167-.167-.093-.333,0-.5A1.652,1.652,0,0,1,99.467,302.969Z" transform="translate(-33.524 -141.614)" fill="#121212"/>
    <path id="Path_72" data-name="Path 72" d="M400.629,613.8l-.212-.164a2.4,2.4,0,0,1,1.15-.487c.172-.07.211.013.191.165C401.33,613.355,401.122,613.908,400.629,613.8Z" transform="translate(-277.988 -393.339)" fill="#d6d6d6"/>
    <path id="Path_73" data-name="Path 73" d="M312.276,285.656c.139-.065.182-.305.366-.256.21.056.122.262.127.407.015.366-.276.317-.5.353a.247.247,0,0,1-.148-.231Z" transform="translate(-206.325 -127.349)" fill="#fefefe"/>
    <path id="Path_74" data-name="Path 74" d="M201.663,148.308l.15.152a4.447,4.447,0,0,1-1.277.515c-.163.037-.22-.028-.177-.187Z" transform="translate(-115.606 -16.089)" fill="#7b7b7b"/>
    <path id="Path_75" data-name="Path 75" d="M232.188,149.4l-.187-.176c.342-.246.769-.194,1.144-.325l.2.209A2.864,2.864,0,0,1,232.188,149.4Z" transform="translate(-141.299 -16.567)" fill="#a9a9a9"/>
    <path id="Path_76" data-name="Path 76" d="M179.654,170.5c-.117.391-.507.367-.784.515-.191.039-.25-.052-.224-.227.3-.1.43-.483.789-.5A.251.251,0,0,1,179.654,170.5Z" transform="translate(-97.991 -33.934)" fill="#7a7a7a"/>
    <path id="Path_77" data-name="Path 77" d="M150.406,231.648c-.072-.4.33-.491.488-.74.289-.107.316.082.326.289a.845.845,0,0,1-.493.326Z" transform="translate(-75.068 -83.103)" fill="#b3b3b3"/>
    <path id="Path_78" data-name="Path 78" d="M169.773,263.6l.169.132a3.86,3.86,0,0,1-1.484.639l.01.01C168.755,263.869,169.317,263.821,169.773,263.6Z" transform="translate(-89.726 -109.657)" fill="#787878"/>
    <path id="Path_79" data-name="Path 79" d="M120.088,264.533l1.094-.836a1.749,1.749,0,0,1-.954.986Z" transform="translate(-50.469 -109.74)" fill="#676767"/>
    <path id="Path_80" data-name="Path 80" d="M66.528,416.936l.319.223a2.028,2.028,0,0,1-.015.9c-.378-.187-.162-.77-.6-.871C66.267,417.03,66.4,416.991,66.528,416.936Z" transform="translate(-6.754 -234.111)" fill="#7b7b7b"/>
    <path id="Path_81" data-name="Path 81" d="M427.664,384.932c0-.28,0-.559,0-.874C428.168,384.577,428.166,384.641,427.664,384.932Z" transform="translate(-300.102 -207.427)" fill="#fefefe"/>
    <path id="Path_82" data-name="Path 82" d="M276.759,394.119a2.13,2.13,0,0,1,1.088-.749C277.652,393.89,277.652,393.89,276.759,394.119Z" transform="translate(-177.625 -214.984)" fill="#fefefe"/>
    <path id="Path_83" data-name="Path 83" d="M327.054,246.212a2.987,2.987,0,0,1-1.3-.384,2.286,2.286,0,0,1,1.48.2C327.271,246.189,327.229,246.268,327.054,246.212Z" transform="translate(-217.393 -95.204)" fill="#a8a8a8"/>
    <path id="Path_84" data-name="Path 84" d="M108.388,298.611l1.1-.667.1.185a2.845,2.845,0,0,1-1.04.605C108.387,298.831,108.374,298.739,108.388,298.611Z" transform="translate(-40.969 -137.535)" fill="#a5a5a5"/>
    <path id="Path_85" data-name="Path 85" d="M376.081,486.19c-.405-.617.242-.577.491-.786C376.732,485.868,376.424,486.04,376.081,486.19Z" transform="translate(-258.131 -289.681)" fill="#1f1f1f"/>
    <path id="Path_86" data-name="Path 86" d="M176.189,234.766a2.377,2.377,0,0,1,.993-.449c.09.035.2.046.216.173a2.385,2.385,0,0,1-.873.445C176.464,234.778,176.307,234.81,176.189,234.766Z" transform="translate(-96.001 -85.895)" fill="#393939"/>
    <path id="Path_87" data-name="Path 87" d="M228.618,142.374l-1.57-.018c.277-.429.813.019,1.115-.329.193-.1.384.021.577.006a.326.326,0,0,1,.278.2C228.946,142.462,228.784,142.423,228.618,142.374Z" transform="translate(-137.279 -10.959)" fill="#5f5f5f"/>
    <path id="Path_88" data-name="Path 88" d="M418.946,425.344a1.581,1.581,0,0,1,.572-1.166l-.267,1.149A.9.9,0,0,1,418.946,425.344Z" transform="translate(-293.026 -239.989)" fill="#fefefe"/>
    <path id="Path_89" data-name="Path 89" d="M166.131,254.912l-.177-.158a4.931,4.931,0,0,1,1.3-.625c.043.029.056.057.04.082s-.032.037-.047.037A2.929,2.929,0,0,1,166.131,254.912Z" transform="translate(-87.694 -101.974)" fill="#b7b7b7"/>
    <path id="Path_90" data-name="Path 90" d="M376.367,257.254a2.162,2.162,0,0,1-.852-.784C375.983,256.636,376.452,256.584,376.367,257.254Z" transform="translate(-257.777 -103.874)" fill="#838383"/>
    <path id="Path_91" data-name="Path 91" d="M75.355,320.829a1.069,1.069,0,0,1-.945.661c.107-.445.448-.534.715-.691A.137.137,0,0,1,75.355,320.829Z" transform="translate(-13.396 -156.044)" fill="#999"/>
    <path id="Path_92" data-name="Path 92" d="M80.292,306l-.906.513-.12-.2C79.576,306.143,79.819,305.867,80.292,306Z" transform="translate(-17.337 -144.046)" fill="#777"/>
    <path id="Path_93" data-name="Path 93" d="M97.247,302.129l-.018.19c-.248.056-.229.3-.317.462-.593.041-.426-.346-.377-.668.216.07.311-.248.531-.167Z" transform="translate(-31.304 -140.774)" fill="#1a1a1a"/>
    <path id="Path_94" data-name="Path 94" d="M113.228,248.794l.19.18a2.054,2.054,0,0,1-.849.727A1.262,1.262,0,0,1,113.228,248.794Z" transform="translate(-44.366 -97.644)" fill="#c8c8c8"/>
    <path id="Path_95" data-name="Path 95" d="M345.345,250.6c.4.14.9,0,1.18.453a.352.352,0,0,1-.412.038l-.806-.293A.114.114,0,0,1,345.345,250.6Z" transform="translate(-233.225 -99.112)" fill="#c9c9c9"/>
    <path id="Path_96" data-name="Path 96" d="M115.3,276.239l.006.168c-.3.294-.585.615-1.172.423C114.592,276.652,114.863,276.3,115.3,276.239Z" transform="translate(-45.639 -119.919)" fill="#b0b0b0"/>
    <path id="Path_97" data-name="Path 97" d="M123.776,275.348l.328-.473c.214.073.458-.329.653.041C124.463,275.134,124.225,275.48,123.776,275.348Z" transform="translate(-53.462 -118.717)" fill="#b5b5b5"/>
    <path id="Path_98" data-name="Path 98" d="M152.238,421.226a1.283,1.283,0,0,1-.752-.909c.409-.076.292.456.617.4A.464.464,0,0,1,152.238,421.226Z" transform="translate(-75.952 -236.849)" fill="#7c7c7c"/>
    <path id="Path_99" data-name="Path 99" d="M383.927,415.607c.161.065.284.159.225.349-.036.117-.069.28-.243.251s-.306-.127-.288-.312A.293.293,0,0,1,383.927,415.607Z" transform="translate(-264.354 -233.032)" fill="#fefefe"/>
    <path id="Path_100" data-name="Path 100" d="M97.65,305.678l.673-.161c-.252.441-.746.485-1.144.826C97.146,305.866,97.554,305.908,97.65,305.678Z" transform="translate(-31.873 -143.682)" fill="#838383"/>
    <path id="Path_101" data-name="Path 101" d="M398.756,152a.887.887,0,0,1-.643-.292c.326-.168.652-.3.984-.013A.546.546,0,0,1,398.756,152Z" transform="translate(-276.118 -18.701)" fill="#7d7d7d"/>
    <path id="Path_102" data-name="Path 102" d="M392.935,391.836c-.377-.176-.679-.2-.635-.562a.223.223,0,0,1,.16-.147C392.82,391.151,392.757,391.477,392.935,391.836Z" transform="translate(-271.396 -213.164)" fill="#fefefe"/>
    <path id="Path_103" data-name="Path 103" d="M393.549,382.334a2.653,2.653,0,0,1,.009,1.274C393.132,383.172,393.391,382.865,393.549,382.334Z" transform="translate(-272.232 -206.028)" fill="#fefefe"/>
    <path id="Path_104" data-name="Path 104" d="M424.7,405.6q.03-.455.059-.91a.641.641,0,0,1,.125.919Q424.788,405.745,424.7,405.6Z" transform="translate(-297.699 -224.169)" fill="#fefefe"/>
    <path id="Path_105" data-name="Path 105" d="M93.132,374.405c-.3.175.126.833-.518.778.286-.215.247-.495.182-.8-.029-.136-.076-.377.154-.369C93.135,374.024,93.145,374.238,93.132,374.405Z" transform="translate(-28.17 -199.277)" fill="#c9c9c9"/>
    <path id="Path_106" data-name="Path 106" d="M102.734,262.267l-.089.163c-.151-.084-.518-.086-.164-.375.2-.166.435-.3.653-.445.159-.052.2.035.2.17A1.01,1.01,0,0,1,102.734,262.267Z" transform="translate(-36.058 -108.034)" fill="#d6d6d6"/>
    <path id="Path_107" data-name="Path 107" d="M149.581,275.046l-.018-.216a2.016,2.016,0,0,1,.9-.486.2.2,0,0,1,.24.016A4.3,4.3,0,0,1,149.581,275.046Z" transform="translate(-74.391 -118.355)" fill="#787878"/>
    <path id="Path_108" data-name="Path 108" d="M66.136,409.972a1.255,1.255,0,0,1,.043,1.083A.77.77,0,0,1,66.136,409.972Z" transform="translate(-6.514 -228.459)" fill="#aaa"/>
    <path id="Path_109" data-name="Path 109" d="M349.768,253.029l.412-.038c.306.01.664-.093.773.351l.01-.014A1.7,1.7,0,0,1,349.768,253.029Z" transform="translate(-236.88 -101.048)" fill="#a1a1a1"/>
    <path id="Path_110" data-name="Path 110" d="M105.612,344.84a.828.828,0,0,1,.125.064,2.085,2.085,0,0,1-.309,1.126C105.461,345.629,105.13,345.172,105.612,344.84Z" transform="translate(-38.505 -175.597)" fill="#1c1c1c"/>
    <path id="Path_111" data-name="Path 111" d="M274.3,410l-.19-.181a1.346,1.346,0,0,1,1.013-.306A.88.88,0,0,1,274.3,410Z" transform="translate(-175.472 -228.088)" fill="#fefefe"/>
    <path id="Path_112" data-name="Path 112" d="M58.618,332.873l.2.2c-.246.321-.573.224-.916.236C58.014,332.853,58.453,333.117,58.618,332.873Z" transform="translate(0 -165.884)" fill="#585858"/>
    <path id="Path_113" data-name="Path 113" d="M399.885,361.476c-.27-.29-.277-.508,0-.785A.582.582,0,0,1,399.885,361.476Z" transform="translate(-277.39 -188.462)" fill="#fefefe"/>
    <path id="Path_114" data-name="Path 114" d="M410.435,446.987c.018.352-.277.4-.5.523a.189.189,0,0,1-.042-.267l.366-.6C410.571,446.628,410.457,446.832,410.435,446.987Z" transform="translate(-285.648 -258.221)" fill="#fefefe"/>
    <path id="Path_115" data-name="Path 115" d="M428.382,365.769a.775.775,0,0,1-.023-.878C428.618,365.179,428.588,365.4,428.382,365.769Z" transform="translate(-300.564 -191.87)" fill="#fefefe"/>
    <path id="Path_116" data-name="Path 116" d="M308.8,243.587c.173-.236.441-.118.662-.177l.682.2.035-.021C309.72,243.867,309.26,243.556,308.8,243.587Z" transform="translate(-203.631 -93.275)" fill="#a4a4a4"/>
    <path id="Path_117" data-name="Path 117" d="M232.93,141.552c-.2.083-.344-.078-.514-.126l-.128-.128a2.6,2.6,0,0,1,1.307.094C233.423,141.652,233.127,141.4,232.93,141.552Z" transform="translate(-141.532 -10.358)" fill="#c4c4c4"/>
    <path id="Path_118" data-name="Path 118" d="M175.589,172.93l.224.227a.785.785,0,0,1-.94.072C174.983,172.795,175.424,173.2,175.589,172.93Z" transform="translate(-94.934 -36.072)" fill="#575757"/>
    <path id="Path_119" data-name="Path 119" d="M187.362,245.017a3.084,3.084,0,0,1,.992-.463c.067.044.161.058.174.16l-1,.457C187.466,245.13,187.374,245.117,187.362,245.017Z" transform="translate(-105.069 -94.203)" fill="#acacac"/>
    <path id="Path_120" data-name="Path 120" d="M211.373,235.421l.174.135-.978.324c-.108-.043-.21-.091-.206-.234a.261.261,0,0,1,.155-.154C210.81,235.551,211.063,235.144,211.373,235.421Z" transform="translate(-123.737 -86.712)" fill="#9f9f9f"/>
    <path id="Path_121" data-name="Path 121" d="M347.406,502.1c.2-.4.616-.386.97-.49C348.247,502.162,347.776,502.032,347.406,502.1Z" transform="translate(-234.963 -302.836)" fill="#959595"/>
    <path id="Path_122" data-name="Path 122" d="M405.742,142.675l-.83-.4c.513-.2.828.129,1.187.232C406.028,142.665,405.849,142.594,405.742,142.675Z" transform="translate(-281.636 -11.142)" fill="#dfdfdf"/>
    <path id="Path_123" data-name="Path 123" d="M61.995,442.143a.622.622,0,0,1,.115.524c-.323.191-.449-.059-.506-.277C61.5,441.994,61.991,442.434,61.995,442.143Z" transform="translate(-2.99 -254.569)" fill="#5a5a5a"/>
    <path id="Path_124" data-name="Path 124" d="M422.05,284.185c.4.176.354.558.475.862C422.123,284.871,422.131,284.508,422.05,284.185Z" transform="translate(-295.545 -126.368)" fill="#fefefe"/>
    <path id="Path_125" data-name="Path 125" d="M183.08,169.246l-.219-.209.517-.292c.132.019.271.022.342.166Z" transform="translate(-101.416 -32.676)" fill="#b5b5b5"/>
    <path id="Path_126" data-name="Path 126" d="M281.193,242.26c.277-.077.543-.49.871.082l-.843.114Z" transform="translate(-181.224 -92.166)" fill="#909090"/>
    <path id="Path_127" data-name="Path 127" d="M177.891,249.357l1-.453a.264.264,0,0,1,.164.145,2.521,2.521,0,0,1-.993.451A.26.26,0,0,1,177.891,249.357Z" transform="translate(-97.382 -97.734)" fill="#aeaeae"/>
    <path id="Path_128" data-name="Path 128" d="M289.7,242.4a1.583,1.583,0,0,1-.822-.042c.257-.348.544-.179.818-.1q.082.045.057.093C289.733,242.384,289.715,242.4,289.7,242.4Z" transform="translate(-187.459 -92.25)" fill="#909090"/>
    <path id="Path_129" data-name="Path 129" d="M196.847,241.512a1.02,1.02,0,0,1,.836-.29l-.018.089C197.449,241.606,197.194,241.748,196.847,241.512Z" transform="translate(-112.767 -91.495)" fill="#909090"/>
    <path id="Path_130" data-name="Path 130" d="M102.874,297.672c.206-.159.443-.319.677-.137.122.095.332.32.032.506-.2.05-.32-.105-.476-.169a.817.817,0,0,1-.176-.113C102.911,297.731,102.893,297.7,102.874,297.672Z" transform="translate(-36.498 -137.137)" fill="#4e4e4e"/>
    <path id="Path_131" data-name="Path 131" d="M310.3,288.233l.148.231-.16.119c-.14.006-.324.251-.389.07C309.8,288.374,310.066,288.281,310.3,288.233Z" transform="translate(-204.507 -129.654)" fill="#fefefe"/>
    <path id="Path_132" data-name="Path 132" d="M393.944,401.75c-.347-.064-.459-.334-.271-.557.229-.272.234.247.44.217Z" transform="translate(-272.441 -221.27)" fill="#fefefe"/>
    <path id="Path_133" data-name="Path 133" d="M192.8,243.227l-.174-.161.811-.345C193.43,243.144,193.029,243.075,192.8,243.227Z" transform="translate(-109.344 -92.716)" fill="#dcdcdc"/>
    <path id="Path_134" data-name="Path 134" d="M412.171,443.983c-.071-.108-.014-.283-.177-.344.087-.235.094-.513.351-.658q.127-.1.166.056Z" transform="translate(-287.384 -255.217)" fill="#fefefe"/>
    <path id="Path_135" data-name="Path 135" d="M105.613,301.486l.159.123a1.339,1.339,0,0,1-.78.454.152.152,0,0,0-.027-.135A1.36,1.36,0,0,1,105.613,301.486Z" transform="translate(-38.195 -140.41)" fill="#8e8e8e"/>
    <path id="Path_136" data-name="Path 136" d="M110.1,256.823a1.157,1.157,0,0,1,.625-.5c.143-.092.192,0,.227.116a1.881,1.881,0,0,1-.513.564.259.259,0,0,1-.295-.079Z" transform="translate(-42.358 -103.724)" fill="#ddd"/>
    <path id="Path_137" data-name="Path 137" d="M139.357,240.035a.261.261,0,0,1,.25-.2.528.528,0,0,1,.344-.044.127.127,0,0,1,.068.121c-.006.049-.016.073-.03.073C139.785,240.1,139.61,240.613,139.357,240.035Z" transform="translate(-66.108 -90.329)" fill="#797979"/>
    <path id="Path_138" data-name="Path 138" d="M216.925,153.339a1.177,1.177,0,0,1,.672-.117c-.265.322-.562.542-1,.313l.012.012Z" transform="translate(-128.798 -20.06)" fill="#7a7a7a"/>
    <path id="Path_139" data-name="Path 139" d="M392.97,606.247l-.179-.142a.987.987,0,0,1,.7-.268c.1.085.267,0,.337.146C393.58,606.2,393.243,606.119,392.97,606.247Z" transform="translate(-271.798 -387.426)" fill="#a7a7a7"/>
    <path id="Path_140" data-name="Path 140" d="M422.776,417.44c.228.289-.028.559.02.884-.562-.206-.077-.517-.158-.743A.3.3,0,0,1,422.776,417.44Z" transform="translate(-295.927 -234.52)" fill="#fefefe"/>
    <path id="Path_141" data-name="Path 141" d="M130.991,231.23l-.138.156c-.146.074-.245,0-.336-.1a.129.129,0,0,1,.03-.169c.079-.233.287-.3.485-.378l.173.015C131.237,230.956,131.1,231.087,130.991,231.23Z" transform="translate(-58.918 -82.988)" fill="#e5e5e5"/>
    <path id="Path_142" data-name="Path 142" d="M151.743,262.591q0,.1.009.206c-.3.148-.5.508-.911.438C150.986,262.8,151.4,262.743,151.743,262.591Z" transform="translate(-75.428 -108.842)" fill="#939393"/>
    <path id="Path_143" data-name="Path 143" d="M240.583,247.276c-.282.247-.628.113-1.056.262a.823.823,0,0,1,.726-.434C240.335,247.217,240.517,247.135,240.583,247.276Z" transform="translate(-147.407 -96.274)" fill="#494949"/>
    <path id="Path_144" data-name="Path 144" d="M130.3,258.331a.088.088,0,0,1,.088.1c-.106.371-.485.414-.735.612a.12.12,0,0,1,0-.2A1.133,1.133,0,0,1,130.3,258.331Z" transform="translate(-58.188 -105.385)" fill="#a3a3a3"/>
    <path id="Path_145" data-name="Path 145" d="M84.106,314.858c-.1.313-.391.414-.641.559-.067-.042-.159-.055-.174-.155l.794-.527c.052.019.072.044.061.074S84.121,314.858,84.106,314.858Z" transform="translate(-20.604 -151.163)" fill="#6c6c6c"/>
    <path id="Path_146" data-name="Path 146" d="M113.584,254.542l-.171-.167.655-.49a.782.782,0,0,1-.258.686A.163.163,0,0,1,113.584,254.542Z" transform="translate(-45.051 -101.777)" fill="#cbcbcb"/>
    <path id="Path_147" data-name="Path 147" d="M426.741,394.481a.955.955,0,0,1,.017.816C426.272,395,426.679,394.735,426.741,394.481Z" transform="translate(-299.175 -215.886)" fill="#fefefe"/>
    <path id="Path_148" data-name="Path 148" d="M206.219,237.162l.195.158a3.483,3.483,0,0,1-1.112.383.2.2,0,0,1-.054-.184.465.465,0,0,1,.143-.142,5.056,5.056,0,0,1,.547-.258A.26.26,0,0,1,206.219,237.162Z" transform="translate(-119.582 -88.15)" fill="#b8b8b8"/>
    <path id="Path_149" data-name="Path 149" d="M301.834,345.568l-.022-.222a.754.754,0,0,1,.663-.541C302.477,345.294,301.933,345.246,301.834,345.568Z" transform="translate(-197.958 -175.568)" fill="#fefefe"/>
    <path id="Path_150" data-name="Path 150" d="M338.13,507.312l-.074.031-.08,0c-.1-.128-.311-.021-.388-.192a2.044,2.044,0,0,1,.879-.272.478.478,0,0,1,0,.149C338.547,507.347,338.254,507.231,338.13,507.312Z" transform="translate(-226.994 -307.108)" fill="#252525"/>
    <path id="Path_151" data-name="Path 151" d="M423.285,413.852l-.138.141.159-.965c.162-.03.243.016.184.195Z" transform="translate(-296.436 -230.933)" fill="#fefefe"/>
    <path id="Path_152" data-name="Path 152" d="M71.407,412.195a1.594,1.594,0,0,1-.121,1.107c-.031-.468-.053-.783-.074-1.1Z" transform="translate(-10.8 -230.263)" fill="#2e2e2e"/>
    <path id="Path_153" data-name="Path 153" d="M385.2,619.712a.938.938,0,0,1,0-.159.3.3,0,0,1,.311-.159.368.368,0,0,1,.358.211C385.681,619.872,385.421,619.683,385.2,619.712Z" transform="translate(-265.633 -398.429)" fill="#e5e5e5"/>
    <path id="Path_154" data-name="Path 154" d="M207.136,158.177l-.2-.167a1,1,0,0,1,.748-.256C207.644,158.107,207.33,158.071,207.136,158.177Z" transform="translate(-120.952 -23.747)" fill="#6a6a6a"/>
    <path id="Path_155" data-name="Path 155" d="M213.41,154.974c0,.514-.411.365-.74.48.2-.329.5-.364.752-.467Z" transform="translate(-125.61 -21.499)" fill="#a7a7a7"/>
    <path id="Path_156" data-name="Path 156" d="M406.638,453.545l-.035-.411.347-.591c.151-.031.238,0,.174.178Z" transform="translate(-283.008 -263.002)" fill="#fefefe"/>
    <path id="Path_157" data-name="Path 157" d="M202,239.2a.41.41,0,0,0,.014.148.9.9,0,0,1-.822.264.055.055,0,0,0,.018-.089l.3-.226C201.656,239.207,201.791,239.026,202,239.2Z" transform="translate(-116.291 -89.8)" fill="#cacaca"/>
    <path id="Path_158" data-name="Path 158" d="M85.874,302.379l.171.292a.99.99,0,0,1-.81.053Z" transform="translate(-22.181 -141.135)" fill="#b1b1b1"/>
    <path id="Path_159" data-name="Path 159" d="M401.48,152.721c-.062-.3.159-.28.341-.3.173.086.4.1.455.343l-.093.08a.906.906,0,0,1-.7-.092Z" transform="translate(-278.842 -19.423)" fill="#dfdfdf"/>
    <path id="Path_160" data-name="Path 160" d="M424.174,410.38l-.184-.195.134-.668.184.009C424.292,409.815,424.386,410.122,424.174,410.38Z" transform="translate(-297.12 -228.09)" fill="#fefefe"/>
    <path id="Path_161" data-name="Path 161" d="M337.109,248.425a.631.631,0,0,1,.829-.071C337.676,248.646,337.44,248.457,337.109,248.425Z" transform="translate(-226.606 -97.188)" fill="#f4f4f4"/>
    <path id="Path_162" data-name="Path 162" d="M172.78,252.7a.216.216,0,0,1,.008-.119c.126-.278.4-.29.644-.359a.14.14,0,0,1,.041.12q-.01.064-.026.064A.856.856,0,0,1,172.78,252.7Z" transform="translate(-93.23 -100.427)" fill="#a6a6a6"/>
    <path id="Path_163" data-name="Path 163" d="M163.843,442.667a.872.872,0,0,1-.444-.712l.77.724A.236.236,0,0,1,163.843,442.667Z" transform="translate(-85.62 -254.417)" fill="#474747"/>
    <path id="Path_164" data-name="Path 164" d="M279.97,402.632a.439.439,0,0,1-.434-.434c-.005-.036.124-.136.155-.123A.49.49,0,0,1,279.97,402.632Z" transform="translate(-179.879 -222.048)" fill="#fefefe"/>
    <path id="Path_165" data-name="Path 165" d="M117.06,295.1l.3.064a1.22,1.22,0,0,1-.76.394C116.6,295.185,116.892,295.209,117.06,295.1Z" transform="translate(-47.634 -135.229)" fill="#8c8c8c"/>
    <path id="Path_166" data-name="Path 166" d="M140,214.569a.734.734,0,0,1-.622.412.629.629,0,0,1,.5-.539C139.977,214.435,140.019,214.475,140,214.569Z" transform="translate(-66.128 -69.763)" fill="#b0b0b0"/>
    <path id="Path_167" data-name="Path 167" d="M112.8,291.971a.633.633,0,0,1-.645.4A.559.559,0,0,1,112.8,291.971Z" transform="translate(-44.026 -132.684)" fill="#5a5a5a"/>
    <path id="Path_168" data-name="Path 168" d="M106.755,259.741l-.162-.151a1.1,1.1,0,0,1,.66-.476l0-.008c.214.384-.16.469-.334.656l0-.006A.094.094,0,0,1,106.755,259.741Z" transform="translate(-39.516 -106.013)" fill="#cfcfcf"/>
    <path id="Path_169" data-name="Path 169" d="M105.409,337.353q.012.486.024.972C104.868,338.015,105.355,337.679,105.409,337.353Z" transform="translate(-38.355 -169.52)" fill="#1c1c1c"/>
    <path id="Path_170" data-name="Path 170" d="M87.7,384.644c.231.237.171.511.161.862-.311-.268-.262-.584-.372-.836Z" transform="translate(-24.007 -207.902)" fill="#3d3d3d"/>
    <path id="Path_171" data-name="Path 171" d="M400.724,603.645a.634.634,0,0,1-.5.325c-.16.061-.331.149-.349-.141l.44-.221A.357.357,0,0,1,400.724,603.645Z" transform="translate(-277.549 -385.579)" fill="#d3d3d3"/>
    <path id="Path_172" data-name="Path 172" d="M154.56,272.461l-.239-.016a1.473,1.473,0,0,1,1.061-.461l-.01-.012A1.594,1.594,0,0,1,154.56,272.461Z" transform="translate(-78.253 -116.455)" fill="#7f7f7f"/>
    <path id="Path_173" data-name="Path 173" d="M284.005,425.349l-.191-.188a.633.633,0,0,1,.4-.588A1.144,1.144,0,0,1,284.005,425.349Z" transform="translate(-183.351 -240.308)" fill="#fefefe"/>
    <path id="Path_174" data-name="Path 174" d="M397.122,604.978l.349.141c-.181.2-.445.07-.651.167l-.337-.146Z" transform="translate(-274.795 -386.729)" fill="#cfcfcf"/>
    <path id="Path_175" data-name="Path 175" d="M417.561,432.193l-.43.692a1.343,1.343,0,0,1,.283-1.021C417.545,431.936,417.472,432.1,417.561,432.193Z" transform="translate(-291.538 -246.226)" fill="#fefefe"/>
    <path id="Path_176" data-name="Path 176" d="M147.017,266.195l-.2-.2c.234-.159.412-.475.774-.28A1.368,1.368,0,0,1,147.017,266.195Z" transform="translate(-72.165 -111.325)" fill="#9a9a9a"/>
    <path id="Path_177" data-name="Path 177" d="M263.873,243.764a.374.374,0,0,1-.521.149.1.1,0,0,1-.028-.186A.423.423,0,0,1,263.873,243.764Z" transform="translate(-166.683 -93.462)" fill="#4b4b4b"/>
    <path id="Path_178" data-name="Path 178" d="M412.5,609.875c.229-.27.4-.365.692-.3A.559.559,0,0,1,412.5,609.875Z" transform="translate(-287.791 -390.444)" fill="#343434"/>
    <path id="Path_179" data-name="Path 179" d="M128.376,232.742l-.02.017c.136.288-.037.451-.243.6a.75.75,0,0,1-.219.094C127.664,232.951,128.041,232.86,128.376,232.742Z" transform="translate(-56.746 -84.616)" fill="#ccc"/>
    <path id="Path_180" data-name="Path 180" d="M315.966,243.606l-.035.021c.188-.252.419-.215.681-.125C316.44,243.991,316.177,243.6,315.966,243.606Z" transform="translate(-209.418 -93.294)" fill="#c9c9c9"/>
    <path id="Path_181" data-name="Path 181" d="M382.3,262.942c.494-.066.51.206.743.385C382.626,263.4,382.549,263.162,382.3,262.942Z" transform="translate(-263.282 -109.119)" fill="#777"/>
    <path id="Path_182" data-name="Path 182" d="M401.5,353.121c-.085.117-.1.291-.275.239a.2.2,0,0,1-.089-.176c.037-.116.088-.264.258-.221C401.44,352.975,401.467,353.069,401.5,353.121Z" transform="translate(-278.569 -182.183)" fill="#fefefe"/>
    <path id="Path_183" data-name="Path 183" d="M134.061,227.305c-.05.173-.131.305-.346.26-.147-.245-.024-.41.192-.485S134.088,227.174,134.061,227.305Z" transform="translate(-61.477 -80.008)" fill="gray"/>
    <path id="Path_184" data-name="Path 184" d="M427.386,344.084c.171.344.23.562.055.814A.84.84,0,0,1,427.386,344.084Z" transform="translate(-299.812 -174.983)" fill="#fefefe"/>
    <path id="Path_185" data-name="Path 185" d="M375.473,610.255a1.51,1.51,0,0,1-.343.147c-.132.022-.355.127-.372-.1-.015-.19.2-.184.356-.2Z" transform="translate(-257.162 -390.888)" fill="#080808"/>
    <path id="Path_186" data-name="Path 186" d="M102.665,344.657c-.3-.2.123-.656-.287-.818.131-.224.273-.149.3.038A4.525,4.525,0,0,1,102.665,344.657Z" transform="translate(-36.095 -174.673)" fill="#1c1c1c"/>
    <path id="Path_187" data-name="Path 187" d="M414.021,440.433l-.166-.056.291-.644c.317-.011.2.2.188.362A.39.39,0,0,1,414.021,440.433Z" transform="translate(-288.894 -252.613)" fill="#fefefe"/>
    <path id="Path_188" data-name="Path 188" d="M362.132,245.049a.587.587,0,0,1-.549-.44C361.946,244.558,362,244.857,362.132,245.049Z" transform="translate(-246.469 -94.243)" fill="#656565"/>
    <path id="Path_189" data-name="Path 189" d="M186.166,256.268a1.483,1.483,0,0,1-.97.6A1.382,1.382,0,0,1,186.166,256.268Z" transform="translate(-103.311 -103.711)" fill="#7a7a7a"/>
    <path id="Path_190" data-name="Path 190" d="M65.709,327.734l.223.219-.375.279-.3-.145Z" transform="translate(-5.966 -161.713)" fill="#b5b5b5"/>
    <path id="Path_191" data-name="Path 191" d="M141.353,245.739a.386.386,0,0,1-.347-.158l.172-.192c.149-.055.259-.236.454-.141C141.8,245.561,141.536,245.627,141.353,245.739Z" transform="translate(-67.446 -94.744)" fill="#3e3e3e"/>
    <path id="Path_192" data-name="Path 192" d="M409.319,143.93l.357-.167c.133-.013.247.01.3.155l-.231.22Z" transform="translate(-285.213 -12.397)" fill="#ededed"/>
    <path id="Path_193" data-name="Path 193" d="M152.1,212.19a.637.637,0,0,1,.673-.283c-.023.359-.313.339-.5.444Z" transform="translate(-76.452 -67.694)" fill="#2c2c2c"/>
    <path id="Path_194" data-name="Path 194" d="M143.579,252.076c.216-.294.5-.256.8-.176C144.183,252.28,143.887,252.205,143.579,252.076Z" transform="translate(-69.534 -100.119)" fill="#5d5d5d"/>
    <path id="Path_195" data-name="Path 195" d="M423.579,151.932a.38.38,0,0,1-.186.348l-.3-.219.008-.168C423.261,151.894,423.436,151.719,423.579,151.932Z" transform="translate(-296.391 -18.944)" fill="#f4f4f4"/>
    <path id="Path_196" data-name="Path 196" d="M128.1,248.24a.419.419,0,0,1,.322-.332.4.4,0,0,1-.257.609Z" transform="translate(-56.97 -96.925)" fill="#6f6f6f"/>
    <path id="Path_197" data-name="Path 197" d="M287.837,510.358c-.214-.226.183-.182.145-.331a.6.6,0,0,1,.494-.007C288.368,510.332,288.113,510.364,287.837,510.358Z" transform="translate(-186.564 -309.619)" fill="#a6a6a6"/>
    <path id="Path_198" data-name="Path 198" d="M87.526,313.011a.142.142,0,0,0-.021-.123,1.275,1.275,0,0,1,.772-.429C88.029,312.821,87.837,313,87.526,313.011Z" transform="translate(-24.024 -149.316)" fill="gray"/>
    <path id="Path_199" data-name="Path 199" d="M125.975,236.824c-.207.432-.34.049-.5-.045.1-.225.232-.413.523-.38C126.077,236.545,125.952,236.681,125.975,236.824Z" transform="translate(-54.841 -87.582)" fill="#e0e0e0"/>
    <path id="Path_200" data-name="Path 200" d="M278.806,128.621c.019.149-.1.167-.193.168s-.262-.023-.273-.068c-.04-.154.089-.212.222-.232A.208.208,0,0,1,278.806,128.621Z" transform="translate(-178.902 0)" fill="#3e3e3e"/>
    <path id="Path_201" data-name="Path 201" d="M405.058,358l-.226-.023c.064-.143-.025-.452.26-.361C405.268,357.673,405.177,357.878,405.058,358Z" transform="translate(-281.571 -185.953)" fill="#fefefe"/>
    <path id="Path_202" data-name="Path 202" d="M242.321,135.24q.049.16.1.32a.708.708,0,0,1-.534-.145C241.961,135.184,242.159,135.257,242.321,135.24Z" transform="translate(-149.321 -5.482)" fill="#dedede"/>
    <path id="Path_203" data-name="Path 203" d="M185.837,247.012l.169.154-.478.183c-.041-.035-.054-.071-.041-.106s.028-.053.041-.053Z" transform="translate(-103.544 -96.198)" fill="#dbdbdb"/>
    <path id="Path_204" data-name="Path 204" d="M327.7,372.005c.125-.31.3-.4.639-.568C328.2,371.813,328.073,371.963,327.7,372.005Z" transform="translate(-218.97 -197.183)" fill="#fefefe"/>
    <path id="Path_205" data-name="Path 205" d="M332.644,247.27l.182-.18c.187,0,.438.094.345.258C333.063,247.537,332.811,247.4,332.644,247.27Z" transform="translate(-222.982 -96.262)" fill="#767676"/>
    <path id="Path_206" data-name="Path 206" d="M342.914,250.138l-.038.2a.927.927,0,0,1-.607-.2C342.522,249.873,342.719,250.184,342.914,250.138Z" transform="translate(-230.794 -98.648)" fill="#a6a6a6"/>
    <path id="Path_207" data-name="Path 207" d="M375.33,621.866q.007.1.014.2a.575.575,0,0,1-.492.146l-.013-.206A.58.58,0,0,1,375.33,621.866Z" transform="translate(-257.228 -400.432)" fill="#f8f8f8"/>
    <path id="Path_208" data-name="Path 208" d="M418.856,430.556l-.147-.329.045-.282c.1.005.192-.212.305-.017Z" transform="translate(-292.834 -244.59)" fill="#fefefe"/>
    <path id="Path_209" data-name="Path 209" d="M176.274,251.665l-.015-.184.307-.172.169.143Z" transform="translate(-96.058 -99.686)" fill="#cfcfcf"/>
    <path id="Path_210" data-name="Path 210" d="M415.587,438.7c-.031-.137-.013-.3-.188-.362.007-.156.074-.4.213-.3C415.83,438.2,415.764,438.483,415.587,438.7Z" transform="translate(-290.147 -251.219)" fill="#fefefe"/>
    <path id="Path_211" data-name="Path 211" d="M406.713,612.307l-.191-.165c.169-.2.408-.139.659-.259A.476.476,0,0,1,406.713,612.307Z" transform="translate(-282.943 -392.333)" fill="#aeaeae"/>
    <path id="Path_212" data-name="Path 212" d="M127.666,261.017c0,.067,0,.135,0,.2a.752.752,0,0,1-.519.312A.613.613,0,0,1,127.666,261.017Z" transform="translate(-56.199 -107.565)" fill="#949494"/>
    <path id="Path_213" data-name="Path 213" d="M142.374,243.921a.459.459,0,0,1-.454.141.849.849,0,0,1,.471-.476l.156.163q.113.154-.077.174l-.048.028Z" transform="translate(-68.188 -93.418)" fill="#d5d5d5"/>
    <path id="Path_214" data-name="Path 214" d="M113.274,272.4a.2.2,0,0,1-.183.242c-.051.013-.118-.038-.178-.059a1.094,1.094,0,0,1,.188-.226C113.133,272.338,113.222,272.39,113.274,272.4Z" transform="translate(-44.644 -116.768)" fill="#2e2e2e"/>
    <path id="Path_215" data-name="Path 215" d="M145.733,234.765l.358.079-.25.14c-.051.227-.231.249-.417.261a.329.329,0,0,1-.179-.113Z" transform="translate(-70.886 -86.258)" fill="#868686"/>
    <path id="Path_216" data-name="Path 216" d="M165.754,445.733l.326.013c.025.135.228.336.051.385C165.909,446.191,165.81,445.938,165.754,445.733Z" transform="translate(-87.532 -257.483)" fill="#737373"/>
    <path id="Path_217" data-name="Path 217" d="M402.617,602.789l-.408-.037c.137-.066.271-.141.413-.193.072-.026.212-.131.213.062C402.834,602.732,402.73,602.784,402.617,602.789Z" transform="translate(-279.442 -384.723)" fill="#a9a9a9"/>
    <path id="Path_218" data-name="Path 218" d="M101.363,298.933c-.143.022-.316.264-.4.1-.13-.26.234-.264.338-.419l.063.01A.227.227,0,0,1,101.363,298.933Z" transform="translate(-34.924 -138.076)" fill="#363636"/>
    <path id="Path_219" data-name="Path 219" d="M145.25,236.082a.6.6,0,0,0,.442-.151c.061.332-.21.378-.415.48a.157.157,0,0,1-.193.026C145,236.256,145.152,236.18,145.25,236.082Z" transform="translate(-70.738 -87.205)" fill="#c4c4c4"/>
    <path id="Path_220" data-name="Path 220" d="M178.7,459.346c-.116.056-.2.123-.228.1a.476.476,0,0,1-.2-.214c-.03-.086.059-.135.141-.093A2.524,2.524,0,0,1,178.7,459.346Z" transform="translate(-97.69 -268.355)" fill="#242424"/>
    <path id="Path_221" data-name="Path 221" d="M103.206,298.974q0-.156,0-.313l.177,0c.16.13.288.27.167.495C103.307,299.337,103.295,299.084,103.206,298.974Z" transform="translate(-36.767 -138.117)" fill="#676767"/>
    <path id="Path_222" data-name="Path 222" d="M405.517,154.531c-.209-.014-.405.269-.623.024a.445.445,0,0,1,.172-.357l-.012.007C405.191,154.337,405.459,154.285,405.517,154.531Z" transform="translate(-281.62 -20.869)" fill="#ccc"/>
    <path id="Path_223" data-name="Path 223" d="M143.018,238.206l.253.042a1.462,1.462,0,0,1-.659.454.175.175,0,0,0-.022-.138C142.582,238.264,142.732,238.154,143.018,238.206Z" transform="translate(-68.731 -89.041)" fill="silver"/>
    <path id="Path_224" data-name="Path 224" d="M318.731,521.48l-.373.091-.313-.138C318.28,521.351,318.53,521.063,318.731,521.48Z" transform="translate(-211.133 -318.782)" fill="#6a6a6a"/>
    <path id="Path_225" data-name="Path 225" d="M92.545,309.716l.628-.353c.039.056.1.106.087.13C93.156,309.748,92.961,309.82,92.545,309.716Z" transform="translate(-28.114 -146.803)" fill="#979797"/>
    <path id="Path_226" data-name="Path 226" d="M81.217,317.533l.174.155L80.9,318a.257.257,0,0,1-.164-.144Z" transform="translate(-18.53 -153.434)" fill="#787878"/>
    <path id="Path_227" data-name="Path 227" d="M284.134,509.295q0,.143,0,.285c-.218.1-.442.223-.526-.149A.422.422,0,0,1,284.134,509.295Z" transform="translate(-183.181 -309.036)" fill="#787878"/>
    <path id="Path_228" data-name="Path 228" d="M441.336,321.626l-.183-.448.184-.358.137.2C441.569,321.253,441.771,321.512,441.336,321.626Z" transform="translate(-311.05 -156.102)" fill="#3c3c3c"/>
    <path id="Path_229" data-name="Path 229" d="M340.468,507.953l.332-.286c.522.335-.087.328-.147.487Z" transform="translate(-229.332 -307.75)" fill="#686868"/>
    <path id="Path_230" data-name="Path 230" d="M78.682,319.258l.164.144c-.126.093-.224.24-.411.217l-.23-.031Z" transform="translate(-16.476 -154.834)" fill="#939393"/>
    <path id="Path_231" data-name="Path 231" d="M454.566,173.255a.844.844,0,0,1-.139-.266c-.013-.109.1-.1.149-.051a1.245,1.245,0,0,1,.154.248Z" transform="translate(-321.823 -36.05)" fill="#8a8a8a"/>
    <path id="Path_232" data-name="Path 232" d="M81.687,496.41l.342-.007a.325.325,0,0,1,.152.325A.475.475,0,0,1,81.687,496.41Z" transform="translate(-19.302 -298.608)" fill="#4a4a4a"/>
    <path id="Path_233" data-name="Path 233" d="M283.02,510.2c.119.247.337.149.526.149-.146.346-.434.139-.661.169Z" transform="translate(-182.597 -309.805)" fill="#1d1d1d"/>
    <path id="Path_234" data-name="Path 234" d="M84.267,312a.556.556,0,0,1-.182.076c-.076,0-.171-.035-.1-.138a.283.283,0,0,1,.182-.115C84.249,311.81,84.3,311.873,84.267,312Z" transform="translate(-21.145 -148.797)" fill="#2d2d2d"/>
    <path id="Path_235" data-name="Path 235" d="M203.686,156.439c-.111-.03-.176-.081-.113-.163a.28.28,0,0,1,.195-.094c.031,0,.064.1.1.162Z" transform="translate(-118.206 -22.479)" fill="#2d2d2d"/>
    <path id="Path_236" data-name="Path 236" d="M243.713,246.871c-.12-.037-.278,0-.33-.171.125-.023.252-.044.376-.071.1-.022.227-.062.235.081C244,246.9,243.815,246.827,243.713,246.871Z" transform="translate(-150.537 -95.869)" fill="#8b8b8b"/>
    <path id="Path_237" data-name="Path 237" d="M142.17,213.093l-.119-.127a.547.547,0,0,1,.445-.343q.008.126.015.252A.409.409,0,0,1,142.17,213.093Z" transform="translate(-68.294 -68.288)" fill="#c2c2c2"/>
    <path id="Path_238" data-name="Path 238" d="M254.375,245.4l.167.092c-.032.055-.062.153-.1.155a.241.241,0,0,1-.183-.088C254.206,245.478,254.269,245.426,254.375,245.4Z" transform="translate(-159.349 -94.887)" fill="#181818"/>
    <path id="Path_239" data-name="Path 239" d="M98.4,304.413c-.195-.361-.07-.5.318-.463-.082.143-.2.277-.139.462Z" transform="translate(-32.794 -142.405)" fill="#676767"/>
    <path id="Path_240" data-name="Path 240" d="M97.323,301.484c-.186.026-.258.413-.53.167C96.954,301.545,97.031,301.174,97.323,301.484Z" transform="translate(-31.562 -140.31)" fill="#484848"/>
    <path id="Path_241" data-name="Path 241" d="M104.314,299.145l-.167-.495c.287-.053.29.268.469.357Z" transform="translate(-37.531 -138.104)" fill="#1f1f1f"/>
    <path id="Path_242" data-name="Path 242" d="M288.363,403.524c-.039-.025-.127-.049-.138-.092-.033-.128.085-.179.174-.206a.191.191,0,0,1,.169.085C288.609,403.446,288.479,403.464,288.363,403.524Z" transform="translate(-186.927 -222.982)" fill="#fefefe"/>
    <path id="Path_243" data-name="Path 243" d="M199.223,150.853l.177.187c-.151.126-.341.237-.442,0C198.894,150.883,199.088,150.855,199.223,150.853Z" transform="translate(-114.471 -18.154)" fill="#4e4e4e"/>
    <path id="Path_244" data-name="Path 244" d="M408.619,450.531l-.174-.178a.91.91,0,0,1,.3-.519l.042.267Z" transform="translate(-284.503 -260.812)" fill="#fefefe"/>
    <path id="Path_245" data-name="Path 245" d="M127.445,236.347c-.372-.161.026-.283.022-.425l-.01.019.152-.113c.144-.057.171.009.142.135Z" transform="translate(-56.311 -87.104)" fill="#0b0b0b"/>
    <path id="Path_246" data-name="Path 246" d="M324.059,245.279c.119.033.244.044.21.184a.212.212,0,0,1-.156.123.164.164,0,0,1-.189-.182C323.929,245.355,324.017,245.315,324.059,245.279Z" transform="translate(-215.904 -94.792)" fill="#555"/>
    <path id="Path_247" data-name="Path 247" d="M139.453,281.276l.363.185-.33.144-.337-.147Z" transform="translate(-65.939 -124.007)" fill="#8d8d8d"/>
    <path id="Path_248" data-name="Path 248" d="M413.052,277.82a2.381,2.381,0,0,1-.175-.321.106.106,0,0,1,.117-.148c.131.01.166.12.165.226C413.159,277.635,413.112,277.692,413.052,277.82Z" transform="translate(-288.094 -120.822)" fill="#636363"/>
    <path id="Path_249" data-name="Path 249" d="M293.222,242.7a.548.548,0,0,0,0-.142.92.92,0,0,1,.732.073A.856.856,0,0,1,293.222,242.7Z" transform="translate(-190.983 -92.546)" fill="#ababab"/>
    <path id="Path_250" data-name="Path 250" d="M299.625,242.719c-.114.219-.351.1-.512.184l-.182-.1c.054-.038.106-.107.161-.109C299.269,242.687,299.447,242.708,299.625,242.719Z" transform="translate(-195.62 -92.691)" fill="#959595"/>
    <path id="Path_251" data-name="Path 251" d="M181.02,267.276c-.043-.009-.147-.029-.088-.124a.451.451,0,0,1,.239-.163c.079-.024.149.035.119.134S181.168,267.285,181.02,267.276Z" transform="translate(-99.836 -112.408)" fill="#626262"/>
    <path id="Path_252" data-name="Path 252" d="M104.372,351.137a2.353,2.353,0,0,1-.031.476c-.079.3-.193.278-.3,0Z" transform="translate(-37.447 -180.708)" fill="#1c1c1c"/>
    <path id="Path_253" data-name="Path 253" d="M135.05,250.234q.008.112.015.224c-.111.111-.322.246-.374.1C134.609,250.336,134.866,250.281,135.05,250.234Z" transform="translate(-62.308 -98.813)" fill="#787878"/>
    <path id="Path_254" data-name="Path 254" d="M183.666,247.959q0,.079,0,.159l-.314.165-.164-.145Z" transform="translate(-101.681 -96.967)" fill="#dbdbdb"/>
    <path id="Path_255" data-name="Path 255" d="M246.206,229.873l.178.08a.911.911,0,0,1-.2.206c-.039.021-.176-.038-.182-.074C245.985,229.974,246.061,229.9,246.206,229.873Z" transform="translate(-152.661 -82.288)" fill="#606060"/>
    <path id="Path_256" data-name="Path 256" d="M312.1,393.025c.136.022.237.068.189.2a.228.228,0,0,1-.171.123.175.175,0,0,1-.181-.208C311.944,393.091,312.049,393.057,312.1,393.025Z" transform="translate(-206.171 -214.704)" fill="#fefefe"/>
    <path id="Path_257" data-name="Path 257" d="M171.243,461.5c-.158-.043-.167-.171-.173-.3l.191.171c.033.034.041.064.025.091S171.256,461.5,171.243,461.5Z" transform="translate(-91.846 -270.036)"/>
    <path id="Path_258" data-name="Path 258" d="M171.986,462.237a.381.381,0,0,1,.018-.129l.162.162c.033.034.041.065.025.092s-.03.038-.043.038Z" transform="translate(-92.59 -270.773)"/>
    <path id="Path_259" data-name="Path 259" d="M172.845,463.1a.382.382,0,0,1,.018-.13l.164.164c.032.033.039.063.023.089s-.029.036-.042.036Z" transform="translate(-93.287 -271.472)"/>
    <path id="Path_260" data-name="Path 260" d="M173.71,463.962a.326.326,0,0,1,.019-.125l.164.162q.047.051.022.091c-.015.024-.03.037-.043.037Z" transform="translate(-93.989 -272.177)"/>
    <path id="Path_261" data-name="Path 261" d="M174.567,464.824a.33.33,0,0,1,.021-.128l.133.144-.087.113Z" transform="translate(-94.685 -272.874)"/>
    <path id="Path_270" data-name="Path 270" d="M181.147,199.059a22.651,22.651,0,0,1,3.075-1.309c.161-.052.225.011.2.174-.176.128-.365.256.014.362.162.183.4.085.586.152s.243.182.048.32c-.373-.442-.813-.249-1.2-.072a21.468,21.468,0,0,1-2.509.738A.4.4,0,0,0,181.147,199.059Z" transform="translate(-100.025 -56.203)" fill="#e4e4e4"/>
    <path id="Path_272" data-name="Path 272" d="M293.141,621.224q.006.094.012.189a8.3,8.3,0,0,1-3.092.069c-.486-.053-1.021.117-1.473-.2a.134.134,0,0,1,.019-.225l.651.034c.394.163.828-.028,1.223.135A16.042,16.042,0,0,1,293.141,621.224Z" transform="translate(-187.183 -399.778)" fill="#292929"/>
    <path id="Path_273" data-name="Path 273" d="M319.026,508.306c.146.03.3.041.388.191a23.132,23.132,0,0,1-4.12.994c-.209,0-.5.252-.576-.174,1.243-.288,2.482-.594,3.733-.844C318.654,508.433,318.814,508.278,319.026,508.306Z" transform="translate(-208.433 -308.266)" fill="#1f1f1f"/>
    <path id="Path_274" data-name="Path 274" d="M438.475,324.433a4.321,4.321,0,0,1,1.047,2.511l-1.244-2.282C438.2,324.46,438.306,324.421,438.475,324.433Z" transform="translate(-308.694 -159.033)" fill="#292929"/>
    <path id="Path_275" data-name="Path 275" d="M267.985,138.6l1.116.05c.02.232-.153.25-.312.283a2.972,2.972,0,0,0-1.054.149,2.433,2.433,0,0,1,1.522-.045.218.218,0,0,1,.066.21,10.937,10.937,0,0,0-1.1.029.991.991,0,0,1-1.1-.521Z" transform="translate(-169.803 -8.21)" fill="#f8f8f8"/>
    <path id="Path_276" data-name="Path 276" d="M305.811,513.686c.147.206.378.136.576.175a8.776,8.776,0,0,1-2.643.333,1.348,1.348,0,0,1,.955-.376C305.07,513.793,305.44,513.731,305.811,513.686Z" transform="translate(-199.526 -312.635)" fill="#282828"/>
    <path id="Path_277" data-name="Path 277" d="M175.545,213.3c-.042-.2-.454-.083-.348-.321.124-.278.479-.243.743-.322.184-.084.341-.246.571-.2a.15.15,0,0,1,.022.218A2.027,2.027,0,0,1,175.545,213.3Z" transform="translate(-95.181 -68.144)" fill="#1e1e1e"/>
    <path id="Path_278" data-name="Path 278" d="M246.53,139.731a3.465,3.465,0,0,1-1.861-.271,9.052,9.052,0,0,1,2.019-.015Z" transform="translate(-151.58 -8.855)" fill="#d5d5d5"/>
    <path id="Path_279" data-name="Path 279" d="M241.656,143.018a.941.941,0,0,1,.653.157,1.6,1.6,0,0,1-1.636.181.566.566,0,0,1,.338-.289C241.217,142.94,241.45,143.157,241.656,143.018Z" transform="translate(-148.337 -11.789)" fill="#c8c8c8"/>
    <path id="Path_280" data-name="Path 280" d="M201.865,237.134l-.491.1c.021-.255-.165-.284-.346-.319.321-.143.6-.587,1-.14a.161.161,0,0,1-.016.272Z" transform="translate(-116.16 -87.73)" fill="#3a3a3a"/>
    <path id="Path_281" data-name="Path 281" d="M442.122,322.481c.324-.139.064-.412.138-.608a1.014,1.014,0,0,1,.473.983c-.063.06-.074.174-.189.178C442.393,322.857,442.161,322.743,442.122,322.481Z" transform="translate(-311.836 -156.956)" fill="#c4c4c4"/>
    <path id="Path_282" data-name="Path 282" d="M435.9,319.956l-.2.229-.624-1.034a.263.263,0,0,1,.2-.236Z" transform="translate(-306.121 -154.556)" fill="#fefefe"/>
    <path id="Path_283" data-name="Path 283" d="M278.554,620.192a2.764,2.764,0,0,1,1.645.1c-.127.171-.355.021-.494.155a1.805,1.805,0,0,1-1.144-.215Z" transform="translate(-179.082 -399.013)" fill="#616161"/>
    <path id="Path_284" data-name="Path 284" d="M257.044,142.423c.206-.269.613.03.8-.284a.991.991,0,0,1,.878.239A5.719,5.719,0,0,1,257.044,142.423Z" transform="translate(-161.624 -11.06)" fill="#696969"/>
    <path id="Path_285" data-name="Path 285" d="M224.411,187.061l.174-.338c.359.035.677-.451,1.216-.046Z" transform="translate(-135.139 -47.098)" fill="#323232"/>
    <path id="Path_286" data-name="Path 286" d="M163.387,225.538l-.371-.146,1.247-.6C164.11,225.262,163.741,225.389,163.387,225.538Z" transform="translate(-85.31 -78.168)" fill="#404040"/>
    <path id="Path_287" data-name="Path 287" d="M433.166,315.578l-.2.236-.491-.807.191-.2A2.068,2.068,0,0,1,433.166,315.578Z" transform="translate(-304.005 -151.219)" fill="#fefefe"/>
    <path id="Path_288" data-name="Path 288" d="M233.04,184.342a1.841,1.841,0,0,1-1.209.178,1.776,1.776,0,0,1,1.21-.375.126.126,0,0,1,.043.132Q233.062,184.342,233.04,184.342Z" transform="translate(-141.161 -45.167)" fill="#343434"/>
    <path id="Path_289" data-name="Path 289" d="M210.3,234.55l-.954.169a.348.348,0,0,1-.3-.158l1.422-.311Z" transform="translate(-122.668 -85.84)" fill="#434343"/>
    <path id="Path_290" data-name="Path 290" d="M145.364,404.936a3.248,3.248,0,0,1,.634,1.433A1.909,1.909,0,0,1,145.364,404.936Z" transform="translate(-70.983 -224.372)" fill="#acacac"/>
    <path id="Path_291" data-name="Path 291" d="M171.674,206.83a1.749,1.749,0,0,1-.865.459c.177-.488.541-.536.866-.639Q171.811,206.74,171.674,206.83Z" transform="translate(-91.635 -63.44)" fill="#8f8f8f"/>
    <path id="Path_292" data-name="Path 292" d="M269.105,618.8c-.258,0-.53.111-.813-.139.347-.31.682-.159,1.013-.043C269.286,618.729,269.175,618.741,269.105,618.8Z" transform="translate(-170.753 -397.683)" fill="#7e7e7e"/>
    <path id="Path_293" data-name="Path 293" d="M272.61,619.407l.2-.182c.312.062.684-.1.92.245l.007.044C273.338,619.725,272.988,619.415,272.61,619.407Z" transform="translate(-174.258 -398.292)" fill="#606060"/>
    <path id="Path_294" data-name="Path 294" d="M244.139,181.876a1.187,1.187,0,0,1,1.05-.236A1.252,1.252,0,0,1,244.139,181.876Z" transform="translate(-151.15 -43.11)" fill="#a8a8a8"/>
    <path id="Path_295" data-name="Path 295" d="M206.271,236.006l.016-.272c.1-.133-.062-.417.2-.435.188-.013.1.184.121.3.08.032.171.05.183.159Z" transform="translate(-120.416 -86.691)" fill="#595959"/>
    <path id="Path_296" data-name="Path 296" d="M236.711,142.871l-.33.176c-.331-.058-.691.074-1-.152l.356-.175c.219-.219.446.033.667-.012A.387.387,0,0,1,236.711,142.871Z" transform="translate(-144.045 -11.479)" fill="#898989"/>
    <path id="Path_297" data-name="Path 297" d="M99.52,365.863c.434-.2-.081-.86.488-.99-.231.238-.113.545-.152.819C99.819,365.947,99.748,366.031,99.52,365.863Z" transform="translate(-33.775 -191.856)" fill="#292929"/>
    <path id="Path_298" data-name="Path 298" d="M175.4,204.887c0-.06,0-.12,0-.18l.659-.451.171.139A1.369,1.369,0,0,1,175.4,204.887Z" transform="translate(-95.363 -61.497)" fill="#343434"/>
    <path id="Path_299" data-name="Path 299" d="M165.692,209.749c-.212.2-.349.525-.913.433l.782-.609Z" transform="translate(-86.741 -65.812)" fill="#636363"/>
    <path id="Path_300" data-name="Path 300" d="M402.327,154.177a.318.318,0,0,1-.172.357,1.375,1.375,0,0,1-.637-.362Z" transform="translate(-278.881 -20.848)" fill="#9c9c9c"/>
    <path id="Path_301" data-name="Path 301" d="M129.146,233.539,129,233.4c.056-.219.351-.31.311-.581.193-.022.257.119.326.256Z" transform="translate(-57.705 -84.68)" fill="#515151"/>
    <path id="Path_302" data-name="Path 302" d="M151.568,215.194c.2-.091.358-.3.639-.184-.126.281-.39.35-.607.471-.1.055-.214.009-.17-.138.02-.065.105-.11.161-.164Z" transform="translate(-75.898 -70.196)" fill="#717171"/>
    <path id="Path_303" data-name="Path 303" d="M149.208,424.968c-.361-.1-.353-.317-.448-.587C149.136,424.458,149.17,424.661,149.208,424.968Z" transform="translate(-73.739 -240.153)" fill="#d3d3d3"/>
    <path id="Path_304" data-name="Path 304" d="M467.754,195.789l.02-.423.584.79A.584.584,0,0,1,467.754,195.789Z" transform="translate(-332.639 -54.282)" fill="#737373"/>
    <path id="Path_305" data-name="Path 305" d="M183.821,232.1c.232-.2.52-.177.814-.246-.062.3-.269.352-.47.411C184.071,232.164,183.884,232.261,183.821,232.1Z" transform="translate(-102.195 -83.893)" fill="#5e5e5e"/>
    <path id="Path_306" data-name="Path 306" d="M220.667,232.343c-.275.107-.524.4-.854.121C220.068,232.213,220.374,232.326,220.667,232.343Z" transform="translate(-131.407 -84.26)" fill="#4d4d4d"/>
    <path id="Path_307" data-name="Path 307" d="M144.839,243.716l.077-.174c.189-.015.268-.348.586-.147C145.3,243.593,145.222,243.908,144.839,243.716Z" transform="translate(-70.557 -93.21)" fill="#6b6b6b"/>
    <path id="Path_308" data-name="Path 308" d="M181.906,233.158c.122.039.281,0,.344.165l-.572.227-.216-.173Z" transform="translate(-100.281 -84.954)" fill="#1e1e1e"/>
    <path id="Path_309" data-name="Path 309" d="M156.824,209.64c-.038-.045-.119-.1-.116-.145a.366.366,0,0,1,.288-.32c.121-.039.2.033.175.162C157.138,209.507,157,209.582,156.824,209.64Z" transform="translate(-80.19 -65.48)" fill="#3c3c3c"/>
    <path id="Path_310" data-name="Path 310" d="M264.243,617.8c.337-.085.525-.08.6.194C264.6,618.124,264.421,618.064,264.243,617.8Z" transform="translate(-167.467 -397.093)" fill="#5a5a5a"/>
    <path id="Path_311" data-name="Path 311" d="M293.593,621.368c-.407-.048-.841.149-1.223-.135A2.982,2.982,0,0,1,293.593,621.368Z" transform="translate(-190.295 -399.92)" fill="#2b2b2b"/>
    <path id="Path_312" data-name="Path 312" d="M182.242,211.394l-.017-.186c-.073-.3.211-.239.34-.336.077.028.175.036.145.161C182.673,211.306,182.435,211.321,182.242,211.394Z" transform="translate(-100.891 -66.866)" fill="#616161"/>
    <path id="Path_313" data-name="Path 313" d="M69.067,424.38c.061.095.129.154.132.217.006.117-.066.215-.194.171-.049-.017-.092-.132-.087-.2S69,424.461,69.067,424.38Z" transform="translate(-8.937 -240.153)" fill="#bebebe"/>
    <path id="Path_314" data-name="Path 314" d="M238.251,184.08v-.2c.215-.007.451-.227.685.146Z" transform="translate(-146.371 -44.904)" fill="#858585"/>
    <path id="Path_315" data-name="Path 315" d="M208.258,236.243l-.183-.159.183-.182.3.158a.328.328,0,0,1-.044.133Z" transform="translate(-121.88 -87.181)" fill="#252525"/>
    <path id="Path_316" data-name="Path 316" d="M444.364,327.269l.189-.178c-.009.182.257.4.031.521C444.468,327.676,444.408,327.412,444.364,327.269Z" transform="translate(-313.656 -161.192)" fill="#9b9b9b"/>
    <path id="Path_317" data-name="Path 317" d="M278.516,140.577q-.033-.056-.068-.11a.235.235,0,0,1,.119-.206l.081-.023c.155.034.361.081.293.271C278.881,140.672,278.662,140.552,278.516,140.577Z" transform="translate(-178.995 -9.539)" fill="#7e7e7e"/>
    <path id="Path_318" data-name="Path 318" d="M132.924,231.294c-.134-.251.067-.353.214-.479C133.637,231.229,133.079,231.172,132.924,231.294Z" transform="translate(-60.851 -83.052)" fill="#626262"/>
    <path id="Path_319" data-name="Path 319" d="M276.446,138.807l.19.166a.182.182,0,0,0-.006.1l-.024.068c-.232,0-.534.238-.645-.185l.315-.141Z" transform="translate(-176.977 -8.377)" fill="#acacac"/>
    <path id="Path_320" data-name="Path 320" d="M284.663,621.216c.125-.179.339-.071.494-.155l.307,0-.019.225Z" transform="translate(-184.04 -399.778)" fill="#2b2b2b"/>
    <path id="Path_321" data-name="Path 321" d="M259.671,324.308c.053.3-.185.358-.382.427-.273.1-.58.141-.06.381.236.109-.017.2-.083.274a.577.577,0,0,1-.656.185c-.159-.054-.3-.144-.192-.353.056-.107.221-.172.1-.389l-1.307.457c-.057.059-.078.152-.17.179a7.162,7.162,0,0,0-2.175.415c-.205.037-.433.172-.594-.044-.189-.254.13-.423.161-.653.044-.327.266-.21.487-.152a1.52,1.52,0,0,0,1.636-.4l-.013.008c.715.054,1.379-.3,2.073-.207.07-.241-.094-.26-.181-.347-.173-.174-.208-.437-.007-.554s.638.005.623.168c-.058.648.5.429.752.618Z" transform="translate(-159.227 -158.267)" fill="#fefefe"/>
    <path id="Path_322" data-name="Path 322" d="M305.932,305.848c-.263.569-.917.7-1.354,1.076-.024.021-.164-.037-.194-.09a.247.247,0,0,1,.12-.34c.422-.273.853-.534,1.28-.8Z" transform="translate(-200.02 -143.825)" fill="#fefefe"/>
    <path id="Path_323" data-name="Path 323" d="M316.672,322.117c.39-.173.637-.679,1.179-.522-.215.806-.814.9-1.5.838-.079-.2.069-.254.206-.314Z" transform="translate(-209.743 -156.707)" fill="#fefefe"/>
    <path id="Path_324" data-name="Path 324" d="M289.735,329.323a.441.441,0,0,1,.5-.482c.415.038.417.507.657.756-.316-.05-.827.378-.83-.38,0-.079-.224.048-.341.091Z" transform="translate(-188.149 -162.61)" fill="#fefefe"/>
    <path id="Path_325" data-name="Path 325" d="M292.4,322.1c.212.422.642-.522.69.1.032.407-.564.356-.9.427-.194.04-.523.023-.467-.252C291.784,322.063,292.137,322.147,292.4,322.1Z" transform="translate(-189.763 -157.045)" fill="#fefefe"/>
    <path id="Path_326" data-name="Path 326" d="M285.605,331.334c.121.723-.372.795-.956.766l.966-.752Z" transform="translate(-184.029 -164.635)" fill="#fefefe"/>
    <path id="Path_327" data-name="Path 327" d="M264.856,326.125c.22-.295.669-.555.834-.314.284.417-.4.373-.531.642l.013-.008c-.195-.025-.336-.1-.307-.331Z" transform="translate(-167.964 -160.076)" fill="#fefefe"/>
    <path id="Path_328" data-name="Path 328" d="M305.721,325.919c-.2-.017-.277-.113-.247-.263.048-.242.156-.45.437-.479.137-.014.292.041.28.195C306.168,325.672,305.864,325.745,305.721,325.919Z" transform="translate(-200.925 -159.637)" fill="#fefefe"/>
    <path id="Path_329" data-name="Path 329" d="M258.368,337.867a1.085,1.085,0,0,1,1.046-.4C259.07,337.909,258.7,337.816,258.368,337.867Z" transform="translate(-162.699 -169.609)" fill="#fefefe"/>
    <path id="Path_330" data-name="Path 330" d="M261.326,327.149a1.4,1.4,0,0,0-.143.059c-.185.1-.207.489-.536.316-.114-.06-.221-.254-.089-.315.228-.107.489-.4.76-.048Z" transform="translate(-164.426 -161.11)" fill="#fefefe"/>
    <path id="Path_331" data-name="Path 331" d="M285.5,340.621a.478.478,0,0,1-.7.206C284.994,340.478,285.281,340.667,285.5,340.621Z" transform="translate(-184.146 -172.164)" fill="#fefefe"/>
    <path id="Path_332" data-name="Path 332" d="M297.385,315.444c-.164-.015-.252-.092-.225-.2a.291.291,0,0,1,.3-.214c.112,0,.235.071.183.186S297.46,315.381,297.385,315.444Z" transform="translate(-194.179 -151.4)" fill="#fefefe"/>
    <path id="Path_333" data-name="Path 333" d="M276.638,350.029c-.1.194-.186.535-.456.349-.2-.14.08-.279.212-.382A.171.171,0,0,1,276.638,350.029Z" transform="translate(-177.098 -179.752)" fill="#fefefe"/>
    <path id="Path_334" data-name="Path 334" d="M283.724,326.487c.109-.174.183-.407.463-.307.046.017.106.14.087.174-.136.239-.358.144-.559.12Z" transform="translate(-183.271 -160.432)" fill="#fefefe"/>
    <path id="Path_335" data-name="Path 335" d="M236.7,382.858a.276.276,0,0,1-.266.236c-.064.008-.183-.028-.194-.067-.04-.151.067-.226.2-.269A.221.221,0,0,1,236.7,382.858Z" transform="translate(-144.735 -206.362)" fill="#fefefe"/>
    <path id="Path_336" data-name="Path 336" d="M277.86,348.935l-.244-.032c.147-.135.252-.35.507-.276.026.008.056.09.044.125A.281.281,0,0,1,277.86,348.935Z" transform="translate(-178.321 -178.658)" fill="#fefefe"/>
    <path id="Path_337" data-name="Path 337" d="M326.363,307.723c-.03.128-.08.25-.232.254-.041,0-.128-.118-.119-.132a.708.708,0,0,1,.2-.208C326.277,307.6,326.353,307.621,326.363,307.723Z" transform="translate(-217.6 -145.388)" fill="#fefefe"/>
    <path id="Path_338" data-name="Path 338" d="M315.649,323.058c0-.17.068-.317.252-.318.208,0,.215.172.217.33l.013-.009A.372.372,0,0,1,315.649,323.058Z" transform="translate(-209.189 -157.66)" fill="#fefefe"/>
    <path id="Path_339" data-name="Path 339" d="M315.31,324.429l.481,0-.33.325C315.335,324.683,315.113,324.652,315.31,324.429Z" transform="translate(-208.85 -159.031)" fill="#fefefe"/>
    <path id="Path_340" data-name="Path 340" d="M255.6,418.513c-.066.073-.177.218-.193.209-.2-.123-.086-.316-.086-.485C255.5,418.239,255.539,418.385,255.6,418.513Z" transform="translate(-160.197 -235.166)" fill="#fefefe"/>
    <path id="Path_341" data-name="Path 341" d="M271.6,325.763c.046.041.139.085.146.14.016.121-.091.175-.193.161-.062-.008-.16-.077-.165-.128C271.377,325.823,271.472,325.774,271.6,325.763Z" transform="translate(-173.266 -160.114)" fill="#fefefe"/>
    <path id="Path_342" data-name="Path 342" d="M269.079,333.239l.17-.179c-.079.184.336.465-.066.55C269.006,333.647,269.1,333.373,269.079,333.239Z" transform="translate(-171.387 -166.036)" fill="#fefefe"/>
    <path id="Path_343" data-name="Path 343" d="M367.093,440.592c.156.009.255.043.221.175a.242.242,0,0,1-.142.141c-.093.03-.222.022-.216-.109C366.958,440.721,367.053,440.648,367.093,440.592Z" transform="translate(-250.83 -253.311)" fill="#fefefe"/>
    <path id="Path_344" data-name="Path 344" d="M276.736,338.6a.19.19,0,0,1-.249.085.109.109,0,0,1-.054-.183.289.289,0,0,1,.2-.095C276.709,338.414,276.774,338.477,276.736,338.6Z" transform="translate(-177.335 -170.38)" fill="#fefefe"/>
    <path id="Path_345" data-name="Path 345" d="M236.649,142.309l-.657-.09-.3-.047c.189-.189.457-.051.665-.16l.282.047a.16.16,0,0,1,.091.123A.157.157,0,0,1,236.649,142.309Z" transform="translate(-144.296 -10.979)" fill="#f8f8f8"/>
    <path id="Path_346" data-name="Path 346" d="M240.735,142.717l-.007-.074a.928.928,0,0,1,.842-.054.122.122,0,0,1,.131.027c-.168.253-.433.119-.653.162Z" transform="translate(-148.382 -11.387)" fill="#fefefe"/>
    <path id="Path_347" data-name="Path 347" d="M241.566,142.362l-.842.054c0-.059,0-.117,0-.177A1.6,1.6,0,0,1,241.566,142.362Z" transform="translate(-148.378 -11.159)" fill="#c8c8c8"/>
    <path id="Path_348" data-name="Path 348" d="M141.47,237a.7.7,0,0,0-.428.357l-.36-.012a2.169,2.169,0,0,1,.859-.636.437.437,0,0,0,.154,0Z" transform="translate(-67.184 -87.839)" fill="#6d6d6d"/>
    <path id="Path_349" data-name="Path 349" d="M105.029,262.48l.156.014c-.139.311-.27.634-.719.492Z" transform="translate(-37.79 -108.752)" fill="#7a7a7a"/>
    <path id="Path_350" data-name="Path 350" d="M108.3,259.76c.076-.237.423-.336.334-.656l.32.155q.068.059.04.11c-.018.033-.036.049-.053.049C108.742,259.562,108.583,259.778,108.3,259.76Z" transform="translate(-40.901 -106.012)" fill="#919191"/>
    <path id="Path_351" data-name="Path 351" d="M111.7,258.011c.005-.053.009-.106.013-.16a1.1,1.1,0,0,1,.48-.481l.227.029Z" transform="translate(-43.663 -104.605)" fill="#c9c9c9"/>
    <path id="Path_352" data-name="Path 352" d="M180.131,210.808l-.34.336-.577.17C179.436,210.992,179.688,210.726,180.131,210.808Z" transform="translate(-98.457 -66.802)" fill="#adadad"/>
    <path id="Path_353" data-name="Path 353" d="M156.509,222.363c-.05-.454.437-.3.592-.525.167-.053.213.019.183.173-.242.163-.453.4-.79.337Z" transform="translate(-80.017 -75.752)" fill="#c9c9c9"/>
    <path id="Path_354" data-name="Path 354" d="M159.9,221.118l-.183-.173a.723.723,0,0,1,.627-.215C160.319,221.024,160.063,221.017,159.9,221.118Z" transform="translate(-82.631 -74.859)" fill="#8c8c8c"/>
    <path id="Path_355" data-name="Path 355" d="M197.676,197.07l-.2-.174a1.078,1.078,0,0,1,.686-.216C198.109,196.983,197.835,196.962,197.676,197.07Z" transform="translate(-113.274 -55.348)" fill="#bababa"/>
    <path id="Path_358" data-name="Path 358" d="M270.07,139.617l.645.185-.176.161H268.7A1.873,1.873,0,0,1,270.07,139.617Z" transform="translate(-171.087 -9.035)" fill="#353535"/>
  </g>
</svg>